<?xml version="1.0" encoding="utf-8"?>
<!-- Generator: Adobe Illustrator 30.1.0, SVG Export Plug-In . SVG Version: 9.03 Build 0)  -->
<svg version="1.0" id="Camada_1" xmlns="http://www.w3.org/2000/svg" xmlns:xlink="http://www.w3.org/1999/xlink" x="0px" y="0px"
	 viewBox="0 0 1280 850" style="enable-background:new 0 0 1280 850;" xml:space="preserve">
<style type="text/css">
	.st0{fill:#B78686;}
	.st1{fill:#FFEDE7;}
	.st2{fill:#9A6F70;}
	.st3{fill:#D7AAA6;}
	.st4{fill:#F4D1C8;}
	.st5{fill:#EEC5BE;}
	.st6{fill:#F8E0D7;}
	.st7{fill:#FAE8E0;}
	.st8{fill:#CFA09C;}
	.st9{fill:#D8AFA8;}
	.st10{fill:#DFC0B5;}
	.st11{fill:#F1C2B8;}
	.st12{fill:#C09494;}
	.st13{fill:#E7C0B8;}
	.st14{fill:#CCA09B;}
	.st15{fill:#F2CBC2;}
	.st16{fill:#D8AFA8;}
	.st17{fill:#F5D3C8;}
	.st18{fill:#DDB6AF;}
	.st19{fill:#F8DBD1;}
	.st20{fill:#A37A79;}
	.st21{fill:#EAC6BE;}
	.st22{fill:#BE9492;}
	.st23{fill:#B08987;}
	.st24{fill:#E0B6AF;}
	.st25{fill:#E8C5BC;}
</style>
<path class="st0" d="M600.92,378.09c-1.27,5.52,0.74,8.46,6.03,8.8c13.97,0.11,20.17,4.42,18.59,12.93l-5.81,15.98
	c-5.44,4.07-6.81-6.15-2.16-8.31l0.12-3.07c-16.91-1.09-25.37-1.64-25.37-1.64l-8.04,4.33c-4.29,6.51-8.76,9.41-13.39,8.68
	c-0.86,3.51-1.94,4.97-4.16,1.74c-0.71-3.86-2.71-3.22-6,1.89l-7.85,5.95c-1.87,4.23-4.59,5.8-8.16,4.71
	c-20.41,18.57-28.61,41.64-55.82,59.29c-4.48,6.1-10.73,6.09-18.75,0c-1.81-0.03-1.76-0.57-0.07-1.57
	c-1.68-6.21,6.09-8.16,9.58-2.68c1.83-2.98,5.38-5.43,10.66-7.36c3.61-12.64,1.28-21.21-7-25.72c-5.88-0.73-9.23-3.05-10.05-6.96
	c-1.67-0.33-1.63-0.88-0.02-1.63c-0.26-1.63,0.99-4.21,3.01-3.4c0.3-4.45,1.28-5.66,5.44-3.25c0.28-5.3,2.32-5.22,5.78-1.91
	c-1.07-5.07,0-5.41,3.61-1.81c1.45-4.17,5.73-6.9,12.85-8.2c4.42-3.44,8.37-4.46,11.87-3.08c1.87-4.52,7.08-7.5,11.38-4.34
	c-0.58-4.54,2.59-6.36,9.5-5.46c-1.26-4.74,0.21-4.87,3.91-1.96l1.92-1.7c9.33-5.54,18.8-11.85,28.39-18.93
	c0.34-1.28,0.75-2.51,1.42-3.58c1.19-1.94,26.74-18.1,31.38-20.57c2.09-1.11,4.5-1.08,6.79-0.76c1.34,0.27,2.22,2.02,1.85,3.27
	L600.92,378.09z"/>
<path class="st1" d="M468.64,197.83c2.3,1.6,2.29,5.39,2.16,8.23c4.97-0.07,5.46,0.41,1.81,3.73
	c11.17,22.94,26.81,42.97,46.92,60.09c8.96,7.5,15.96,21.42,0.27,22.82c0.59,4.35-6.55,4.36-7.38,0.25
	c-8.59,0.7-17.14,1.75-25.65,3.13c-18.89,6.36-26.99,3.49-24.3-8.62c15.63-7.95,20.23-16.73,13.8-26.36
	c-10.04-11.43-35.22-53.43-30.69-67.67c0.13-0.42,1.1-0.58,2.29-0.66C454.83,194.35,462.25,194.55,468.64,197.83z"/>
<path class="st2" d="M610.64,332.31c5.14-0.71,5.04,2.88,1.85,5.97c2.54,3.82,4.48,7.7,5.84,11.65c5.98,6.82,14.42,9.49,25.31,8.02
	l22.84-2.23c5.08,2.13,6.48,6.94,4.19,14.43c3.21-1.15,6.65,4.31,5.96,7.69c3.76,2.7,2.43,4.6-0.16,7.7l-15.33,9.58
	c3.56,3.65,2.63,6.08-2.14,7.44l-4.81-0.97L645.53,376c-5.48-1.1-8.67,2.13-9.55,9.69l-4.59,1.88c5.49,2.05,2.83,4.41-2,5.09
	c-0.98,2.5-2.91,4.58-3.85,7.17c-5.26-12.39-13.73-4.42-29.52-13.13c0.26-3.71,2.01-6.82,4.89-8.6c4.55-2.3,8.45-6.82,11.71-13.54
	c-5.39-1.69-5.2-5.51-0.31-7.78c-10.18-2.39-21.12-0.97-32.82,4.25c-9.05,0.63-26.48-4.45-16.56-15c-4.35-1.07-5.54-1.92-1.93-5.76
	c0.37-1.72,1.07-1.79,2.07-0.28c0.86,1.19,1.1,1.2,1.98,0.04c0.23-3.02,11.3-4.43,11.35,0c5.48-3.71,11.99-6.14,19.54-7.3
	C602.47,328.65,607.37,328.51,610.64,332.31z"/>
<path class="st3" d="M598.52,489.15l1.42,0.06c-2.75,39.41-5.73,78.65-8.96,117.73l-2.74-0.32c-8.54-1.55-5.46-12.38-2.22-18.21
	l-3.27-10.53c0.2-19.06-0.48-37.98-2.04-56.78c-8.08-2.51-16-4.57-23.76-6.18l-8.7,40.47c-2.68,4.48-4.53,7.2-7.86,2
	c-4.16-2.42-5.43-7.02-3.81-13.8c2.37-14.56-0.75-28.89-9.37-43l0.21-4.81c0.64-7.81,5.66-14.29,9.39-20.89
	c2.08-4.58,5.91-4.19,11.48,1.17c9.71,7.52,26.07,19.71,38.14,12.29C592.72,485.59,596.75,485.86,598.52,489.15z"/>
<path class="st4" d="M839.56,194.59l4.35,0.52c7.41,18.21,14.9,36.67,22.49,55.37c9.38,20.27,3.65,42.97-6.23,60.5
	c3.47,0.35,3.11,1.47-0.07,2.75c-0.32,0.95-0.71,1.82-1.36,2.43c-1.22,1.16-31.43,6.21-33.02,5.65l-3.28-3.7
	c-2.82-1.95-2.94-5.35-0.36-10.18c9.42-14.61,6.63-22.92-5.99-34c-12.95-7.69-24.99-16.28-36.12-25.79l-0.67-3.96
	c2.34-8.15,5.33-15.97,8.97-23.46c5.38-2.93,9.59-11.4,16.86-11.32c7.27,0.61,6.89,12.07-0.47,11.75
	c0.49,5.87-0.36,10.51-2.55,13.92c3.98,7,9.53,13.24,16.64,18.73c18.79,11.01,25.05,24.58,18.8,40.7c3.71,1,3.63,2.59-0.05,3.49
	c0.05,2.05,0.25,2.84,1.5,4.57c7.72-1.04,13.99-4.19,18.78-9.42c-1.27-3.78-0.18-8.25,3.27-13.4c0.14-5.5,1.7-9.35,4.67-11.57
	c-11.64-22.5-22.07-45.73-31.3-69.7l1.03-4.17L839.56,194.59z"/>
<path class="st0" d="M784.44,429.31c5.27-3.38,8.16-0.66,5.23,4.78l-1.33,2.22c-8.15-0.77-9.72,0.65-4.71,4.27
	c-0.31,23.28,41.73,30.6,25.72,3.58l3.3-3.9c0.99-5.07,2.89-4.8,3.9,0.25c2.69-2.74,8.04,2.79,9.95,5.6
	c4.58-1.8,6.96,0.56,7.15,7.06c3.36-2.06,5.96-0.62,7.82,4.31c3.52-1.27,4.99,0.27,3.38,3.51c-4.11,9.67-3.58,22.7-16.95,24.47
	c-6.26,6.66-15.86,3.92-23.79,1.33c-15.27-4.99-35.06-22.85-45.4-35.13l-0.6-5.71l-0.17-1.94c-0.09-1.04,0.63-0.96,2.16,0.24
	c2.71-6.38,3.58-12.75,2.62-19.14l2.94-3.97C772.1,417.44,784.9,421.6,784.44,429.31z"/>
<path class="st1" d="M831.62,196.29l2.9,2.14c9.14,23.93,19.54,47.17,31.19,69.73c1.38,9.3-2.13,17.89-7.94,24.97
	c-4.71,8.08-12.41,9.52-14.26-1.15c3.89-8.77,6.21-17.39-1.13-25.09c-14.22-15.29-24.57-28.95-30.77-49.5
	c-1.07-3.54-1.87-8.14-0.76-11.62C816.63,200.78,823.93,196.94,831.62,196.29z"/>
<path class="st5" d="M820.89,303.4c2.38,4.19,0.15,13.98-4.74,14.82c-0.25,5.56-7.71,6.66-9.06,1.1
	c-5.46-2.55-0.07-14.33,4.17-16.37c1.1-27.91-56.02-36.11-46.72-1.63l-2.55,4.58c-0.51,5.81-7.71,6.1-9.23,0.2
	c-3.13-0.63-4.56-3.03-4.29-7.19l-14.55-5.24l-0.6-4.62l-1.96-3.83l9.56-13.8c-0.34-6.42,1.51-11.44,5.57-15.06
	c2.4-1.55,4.84-6.16,8.06-6.89c8.11-4.93,9.24,6.5,9.19,12.85c14.17-6.3,40.15,8.48,50.66,18.25
	C821.03,286.7,824.88,294.56,820.89,303.4z"/>
<path class="st6" d="M481.97,201.62c9.34,16.5,14.01,24.75,14.01,24.75c18.56,14.4,34.52,31.34,47.89,50.82l13.45,12.72l0.12,4.64
	c13.9,11.79-1.62,22.62-13.9,13.73c-4.21-0.7-7.84-1.99-10.88-3.89c-0.54,3.82-2.32,3.45-3.2-0.41l-4.49-3.38
	c-0.12,3.83-1.89,3.68-3.1-0.07c-2.04,0.41-5.27,0.26-6.27-1.94c-3.39,4.35-13.73,4.1-17.37,0.07c-0.92-0.57-1.74-1.19-2.2-2.01
	c-2.14-3.85,13.26-4.06,16.4-3.7l7.38-0.25c3.32-2.02,7.63-2.53,12.93-1.53c6.91,0.47,5.95-3.29-2.88-11.27
	c-24.38-20.07-43.47-43.43-57.24-70.11c-1.18-0.77-0.94-2.97-1.81-3.73c-1.01-3.29-0.5-5.43,1.53-6.41
	C475.84,198.79,479.46,199.12,481.97,201.62z"/>
<path class="st7" d="M447.87,192.77c-5.22,9.39,17.05,48.86,22.27,55.16c5.5,6.65,14.12,13.83,12.99,23.7
	c-1.37,11.94-18.13,14.23-18.52,20.1c-0.1,1.5,1.28,4.28,3.83,3.98l38.1-4.52c2.36-0.28,5.73-0.37,5.88,1.75
	c-7.9,4.95-13.55-1.87-14.2,5.72c-1.31,3.62-3.16,3.28-4.77-0.12c-1.15,4.55-2.95,4.58-4.29,0.06c-1.13,4.95-9.73,6.29-12.94,3.95
	c-0.29,1.16-0.66,2.12-1.32,2.4c-2.77,1.19-22.02,7.45-23.25,7.35c-5.5-0.43-12.19-7.97-8.98-12.29l-2.19-3.87
	c10.98-8.42,20.59-17.6,28.84-27.54c-12.77-23.16-24.9-45.66-28.36-72.5c-0.25-1.94,0.62-3.03,2.79-3.54
	C445.09,192.63,446.57,192.47,447.87,192.77z"/>
<path class="st8" d="M540.38,557.4c5.32,0.88,4.89,3.55,0.05,5.3c-7.37,18.27-16.94,30.83-36.37,17.3c0.03,1.59-1.5,2.33-4.58,2.21
	c1.47,0.8,1.24,1.3-0.53,1.51c0.05,4.2-2.68,4.25-3.87,0.21l-0.37-1.89c1.58-9.72,5.62-18.82,8.11-28.15
	c4.42-0.8,5.99,2.55,4.72,10.04c27.03,12.16,23.33-18.97,16.57-34.48c-5.65,0.49-8.97-1.03-9.97-4.56
	c4.64-9.2,5.2-21.65,13.25-29.12c4.92,3.37,5.85,8.36,7.75,14.21c2.59,8.01,8.04,15.04,6.51,23.87
	C540.29,541.94,539.53,550.05,540.38,557.4z"/>
<path class="st5" d="M597.39,285.66c1.11,3.54-0.42,3.84-2.35,0.5c-1.28,1.1-2.84,2.08-4.38,1.66
	c-8.63-14.28-19.09-26.99-31.38-38.15l-1.71-5.79c-3.91-0.34-8.01-2.43-12.3-6.28c2.5,5.38,3.54,11.52,3.12,18.42
	c3.22,3.93,5.35,8.05,6.4,12.37l3.89,1.11c4.97,7.14,10.99,13.36,18.07,18.64l-0.55,4.61c3.13,1.99,2.16,3.2-1.47,1.89
	c-0.93,6.42-8.79,3.33-7.97-2.36l-6.86-4.88c-4.33,3.67-9.8-1.43-5.98-6.08c-13.05-18.13-26.47-35.74-40.25-52.82
	c-8.59-3.15-13.45-8.53-14.59-16.12c-3.86-1.01-5.84-2.29-4.08-6.66c28.43,7.43,55.53,22.42,76.31,44.42
	C581.97,261.4,588.24,274.54,597.39,285.66z"/>
<path class="st9" d="M417.7,194.82c3.76,3.56,3.65,9.17-0.34,16.83c5.09,27.46,4.1,54.01-2.97,79.66c0.16,4.8-0.59,8.97-2.25,12.5
	c3.19,0.6,3.33,1.66,3.29,4.21c-0.03,1.86-6.07,15.4-8.66,14.96c3.63,0.9,3.22,2.34-0.61,2.25c-0.92,5.51-3.53,5.8-5.63,0.62
	c-3.25,2.11-6.24,0.53-8.94-4.74c-3.7-1.39-3.81-3.5-0.34-5.36c5.24-10.58,8.18-22.34,8.82-35.28c5.52-13.34,6.98-27.67,4.37-43
	c1.22-6.41,1.2-13.18,0.76-19.58c-0.12-1.68,0.96-2.54,2.79-2.79c-3.77,0.41-3.11-4.66-2.02-7.35c-4.67-1.39-1.15-9.65,3.57-9.63
	c1.22-0.08,1.72-0.87,1.91-2.01c-1.6-0.52-1.57-1.14,0-1.83l4.04-1.56C417.12,192.89,417.85,193.6,417.7,194.82z"/>
<path class="st10" d="M746.5,256.34c-3.59,4.64,0.86,12.35-2.55,17.29l-10.62,15.4c-1.05,4-6.28,5.9-9.94,7.15
	c-0.01,1.53-0.38,3.09-1.69,3.84c-0.46,0.27-8.65,2-10.27,2.32c-0.79,0.15-1.64-0.05-2.52-0.35c0.39,5.03-1.38,5.01-3.46,0.45
	l-6.52,3.28c0.4,4.82-1.28,5.85-5.39,2.68c-3.71,4.46-6.07,4.82-7.1,1.07c-2.81-2.59-6.71-3.19-11.72-1.78
	c0.97,4.09,0.13,5.82-4.24,5.98c-1.73,0.65-2.19-0.11-1.58-2.04c-4.1-3.05-5.29-5.72,0.4-7.09l48.36-27.1
	C728.59,271.32,736.73,262.65,746.5,256.34z"/>
<path class="st11" d="M443.75,192.56c-1.46,16.88,6.1,31.19,14.71,45.93c5.02,8.59,6.72,18.65,13.37,26.81
	c8.08,9.91-26.75,26.76-29.16,34.72c1.17,2.93-10.88,13.88-12.99,14.71c-2.49,0.98-3.71,1.02-5.91-1.47
	c-8.11-0.12-2.93-12.58,3.53-12.9l1.42-3.17c13.31-10.86,28.04-22.89,22.37-41.86c-7.57-19.21-11.81-38.88-12.73-59.03
	c-3.69-1.09-3.65-2.79,0-3.89C440.16,192.4,441.97,192.47,443.75,192.56z"/>
<path class="st11" d="M487.8,203.53c11.05,13.52,23.27,25.93,36.77,37.46c0,0,9.79,13.44,29.37,40.31c0.49,3.06,4.82,3.8,5.98,6.08
	l6.86,4.88c2.46,0.57,4.75,3.89,7.97,2.36c1.65-0.34,2.11,0.25,1.4,1.77c-1.16,1.37,0.16,2.12,3.98,2.25
	c1.17-0.88,2.58-1.47,3.96-0.87c0.97,0.42,14.72,15.38,9.29,16.71c-3.39,5.54-7.8,5.72-11.68,0.53c-2.29-2.01-4.49-4.3-6.6-6.86
	c-8.1-2.82-13.98-7.36-17.65-13.62c-19.11-12.22-28.21-39.73-61.7-63.08c-4.3-3-16.95-22.94-13.76-29.84
	C483.87,201.07,486.23,203.38,487.8,203.53z"/>
<path class="st7" d="M810.86,205.78c4.12,1.71,3.33,6.41,4.44,10.74c10.66,41.62,47.19,48.92,32.31,71.33
	c-1.59,2.4-0.51,8.21,2.58,8.2c3.34-0.02,5.31-2.66,7.59-2.91c-1.99,3.41-1.17,9.35-7.23,10.13c-3.52,0.45-9.84,4.33-11.55-0.7
	c-1.9-0.67-2.19-2.78-1.5-4.57c-0.2-1.11,0.41-2.42,0.05-3.49c4.5-11.18,4.48-19.46-4.04-28.07l-20.65-18.27
	c-6.85-8.88-9.58-17.89-8.19-27.01c2.4-3.43,1.94-8.15,0.47-11.75C805.71,206.96,809.47,206.98,810.86,205.78z"/>
<path class="st6" d="M555.57,443.84c1.86,1.33,3.89,2.07,6.1,2.22c1.39-3.42,3.02-3.25,3.74,0.33c11.55,5.19,24.33,6.29,36.92,6.97
	l2.43,3.76c3.17,4.54,0.58,15.64-3.77,19.04c-16,6.72-34.96-3.46-49.12-11.06c-1.26,3.57-2.84,3.43-3.52-0.28
	c-2.03-0.52-3.48-2.23-2.48-4.14c-0.79-2-0.2-4.46,1.76-7.37l0.32-3.52l3.44-4.28l0.49-2.13
	C553.62,441.03,555.61,440.54,555.57,443.84z"/>
<path class="st9" d="M502.84,553.9c2.76-10.33,6.6-19.61,11.33-28.99l10.82,0.62c5.6,0.32,15.01,40.77-2.23,44.65
	c-5.34,1.34-13.08-2.27-18.01-3.1C501.93,561.77,505.74,557.41,502.84,553.9z"/>
<path class="st12" d="M600.99,489.4l-1.88,34.08c-1.14,20.63-3.43,33.67-3.64,54.75c-0.14,13.99-5.96,64.68-12.98,80.12l-5.99-4.91
	c-5.49-4.33-10.23-10.23-14.2-17.7l-17.43-20.73l0.45-5.41c-4.38-4.6-1-5.94,4.97-3.98c2.52,3.93,5.67,7.2,9.46,9.82
	c11.79,1.19,17.26,6.59,16.42,16.19c0.22,0.22,3.81,0.57,4.32,0.33c1.05-0.5,4.17-19.61,4.25-22.85l3.49-2.5
	c5.57-3.1,2.56-39.45,4.04-47.22c3.53-18.56,3.54-36.03,3.37-55.23c-0.04-4.7,6.67-9.85,2.87-15.02c-6.31-0.96-2.82-5.74,2.47-3.54
	C602.44,486.49,601.94,487.94,600.99,489.4z"/>
<path class="st13" d="M858.23,194.05c0.6-0.1,1.25,0.15,1.86,0.09c3.11,0.94,5.22,1.78,2.02,3.97
	c10.69,19.15,28.88,73.58,17.57,92.77c-2.4,4.06-4.27,4.52-8.26,1.6l-2.03-2.71l1.89-17.29c-5.72-26.57-15.15-52.18-28.29-76.81
	C847.64,192.6,853.17,192.71,858.23,194.05z"/>
<path class="st14" d="M891.96,254.93c1.11,9.89,2.29,19.9,3.53,30.02c-1.84,7.78-2.99,16.3-3.42,25.58l-3.4,2.87
	c-1.51,4.95-4.38,5.28-5.91,0.04c-2.98,4.36-5.16,3.24-5.89-1.65l-2.66-4.52c10.59-24.23,9.85-39.43,4.26-64.29
	c-3.67-16.32-8.67-30.51-16.37-44.87l-2.02-3.97c5.88-0.57,11.64,2.25,14.31,8.62C881.64,220,887.33,237.45,891.96,254.93z"/>
<path class="st11" d="M788.26,220.72c5.76,12.13-6.63,12.38-5.07,25.08c0.48,3.92,5.49,4.88,8.56,7.64
	c20.25,18.22,12.95,1.21,36.63,29.67c7.37,8.86-4.93,27.04-5.94,35c-1.92,5.07-4.21,5.09-6.29,0.11c1.84-4.33,0.97-11.42,4.74-14.82
	c3.03-7.42,1.02-15.62-4.57-21.09c-9.55-9.36-27.2-17.5-39.48-23.17c-7.77-6.16-13.89-18.65-4.14-25.4
	C777.74,228.73,781.79,224.24,788.26,220.72z"/>
<path class="st15" d="M820.89,303.4c0.06-19.77-14.1-24.22-30.64-33.13c-14.07-12.29-23.55-1.69-28.66-4.91
	c-3.96-2.5,1.4-12.56-7.03-15.9c3.34-7.13,12.97-10.55,18.14-15.71c-4.32,4.57-1.41,8.74,0.15,13.43c2.58,7.75,4.4,8.41,11.14,10.86
	c10.83,3.93,20.06,12.39,30.21,18.3C824.04,282.06,828.81,296.26,820.89,303.4z"/>
<path class="st16" d="M906.68,335.97c2.9,0.44,3.58,1.39,4.16,3.67c2.31,9.06-9.71,25.98-15.62,32.72
	c-1.69,6.74-5.27,10.52-10.74,11.32c3.19-0.27,3.39,1.26,0.28,2.3c-14.78,24.15-28.84,48.94-39.91,75.01
	c0.41-5.12-0.94,1.57-4.5,2.33c-2.08-2.26,1.12-3.76,1.12-5.84c-2.29-3.77,2.31-13.14,4.6-17.41c2.65-5.77,6.01-10.18,10.05-13.22
	c-0.7-1.16-0.93-2.39-0.91-3.72c0.08-5.05,2.28-16.63,7.31-18.65c-1.83-6.14-0.11-11.42,3.01-16.8
	c13.94-16.97,25.52-33.53,37.22-52.12C903.56,334.29,905.17,334.72,906.68,335.97z"/>
<path class="st17" d="M858.23,194.05c-3.89,0.67-7.19-0.18-12.52,2.34c10.48,14.37,13.8,30.16,20,45.4
	c6.97,17.13,9.45,33.07,5.71,50.7c4.73,3.41,2.96,14.32-2.16,16.72c-1.31,1.82-6.93,2.9-9.1,1.78c-3.07,0.78-4.55-0.27-1.9-2.52
	c5.97-19.42,17.05-31.48,7.56-53.33l-26.27-60.54C844.74,191.26,853.17,190.36,858.23,194.05z"/>
<path class="st15" d="M495.01,205.7c1.3,2.64,4.91,2.1,7.74,4.56c-0.24,5.04,1.78,9.9,6.47,11.66
	c19.51,7.35,19.76,28.23,43.06,53.43c1.65,1.79,1.4,4.42,1.64,5.95c-9.97-4.29-25.3-31.66-33.14-38.85
	c-7.91-7.25-35.71-30.31-32.99-38.92C490.4,203.79,492.59,205.06,495.01,205.7z"/>
<path class="st5" d="M600.99,485.61c-1.12-0.1-3.23,2.51-2.47,3.54c-11.93,0.47-17.58,9.07-26.56,4.77l-19.08-9.14
	c-6.21-2.98-8.08-10.53-16.06-9.89c1.47-2.59,1.86-5.54,3.72-8.11c2.41-0.95,5.53-0.4,9.35,1.66
	c14.08,12.44,31.24,17.25,49.74,12.55C601.86,482.06,602.46,483.65,600.99,485.61z"/>
<path class="st16" d="M608.48,300.23c7.15,5.02,9.01,8.84,5.57,11.45c5.04,2.31,3.34,11.91-1.81,13.13
	c-0.14,1.69-0.66,1.7-1.52,0.16c-0.6,1.63-1.21,1.57-1.85-0.08c-2.37-3.39-5.25-5.41-8.66-6.07l-2.81-3.99
	c-3.15-4.96-6.98-9.7-11.5-14.23l1.9-4.01c-6.05-6.05,1.13-9.95,7.24-10.43l2.35-0.5C601.21,290.3,605.85,294.84,608.48,300.23z"/>
<path class="st17" d="M608.85,447.81c-2.56-1.46-3.84-2.19-3.84-2.19c-11.58,1.59-29.62,1.4-37.8-7.05
	c-5.38-1.54-5.31-4.14-0.02-5.68c-0.68-3.48,0.78-4.34,3.51-2.08c0.85-5.12,4.14-4.99,7.74-1.57c2.93-0.97,6.36-0.11,10.27,2.58
	l9.77,0.63c0,0,5.17-1.85,15.51-5.56c0.62-3.29,1.22-3.35,2.14-0.1C613.81,433.83,613.83,442.15,608.85,447.81z"/>
<path class="st11" d="M545.87,460.68c0.25,1.94,1.03,2.76,2.48,4.14c1.16,0.02,2.36,0.34,3.52,0.28
	c15.2,8.83,31.2,15.15,49.12,12.95c2.35-1.84,2.98,0.06,1.89,5.67c-0.8,1.68,0.76,4.86-1.89,5.67c0.07-1.24-0.07-2.54,0-3.78
	c0.29-5.29-18.03,1.11-24.5-0.32c-11.39-2.52-27.31-12.69-35.95-18.52c2.86-3.95,2.82-10.33,7.09-13.47
	C547.41,455.79,547.25,458.51,545.87,460.68z"/>
<path class="st7" d="M835.45,194.29c3.55,4.12,3.18,10.19,5.47,15.72c7.28,17.55,22.97,45.91,24.79,58.14
	c-4.53,1.32-4.19-9.17-14.75-24.67c-7.3-10.71-9.38-23.37-14.67-35.18c-1.89-4.23-5.97-7.38-4.67-12.02
	C832.84,196.08,834.04,194.19,835.45,194.29z"/>
<path class="st0" d="M898.28,285.18l1.51,3.78l0.15,1.91c-0.66,8.26-0.69,16.92-0.09,26l-3.35,2.35c-3.89,5.6-10.63-0.36-7.83-5.82
	c-1.84-9.29,2.08-17.83,3.95-27.4c1.93-9.86-5.14-31.94-0.66-31.08C894.58,264.79,897.65,274.88,898.28,285.18z"/>
<path class="st16" d="M619.73,415.81l-3.6,10.98l-2.14,0.1c-1.37-1.03-1.23-1.78,0.43-2.23c-3.42-4.79-9.17-6.59-17.27-5.39
	c-5.13,1.41-9,0.85-11.61-1.67c-2.76,4.59-3.82,4.57-4.98-0.62c-2.77-3.94-0.46-7.97,6.94-12.08c11.21-0.37,21.28-0.53,30.2-0.47
	C621.52,412.02,615.48,416.75,619.73,415.81z"/>
<path class="st18" d="M755.91,468.61c1.04,7.38,5.86,13.52,8.88,20.89c2.04,4.99,2.31,10.74,5.14,15.44
	c6.08,10.12,6.59,21.41,10.21,32.03c4.11,12.06,4.8,23.89,6.18,35.62l-1.92,0.01c-4.21,0.25-4.34-2.18-3.87-5.78
	c-3.25-1.28-4.07-5.18-2.47-11.68l-1.07-9.5c-4.54-10.85-8.02-22.25-10.42-34.19c-2.32-3.65-2.47-6.71-0.47-9.2
	c0.41-4.63-12.09-31.75-16.7-32.39c-2.58-0.36-5.61,1.12-8.34,2.24c-10.66-4.2,1.87-10.19,9.7-9.31
	C752.45,464.31,755.55,466.09,755.91,468.61z"/>
<path class="st19" d="M608.85,447.81c-0.22,0.25-0.11,0.77-0.24,1.1c0.66,3.62-0.82,3.75-2.23,0.19c-1.19,1.7-2.57,3.55-4.54,4.05
	c-6.48,1.62-28.81-1.93-32.77-7.72c-5.26,1.28-6.59-4.35-1.86-6.86c10.77,1.61,21.34,7.04,33.08,4.76c2.41-0.47,4.93-2.22,6.89-1.22
	C609.23,443.14,608.72,445.97,608.85,447.81z"/>
<path class="st20" d="M903.49,324.66c-3.45,4.9-8.81-0.65-6.99-5.42c-0.13-5.84-2.88-25.81,3.44-28.35
	C899.99,292.85,903.49,324.66,903.49,324.66z"/>
<path class="st12" d="M495.1,583.94c2.84,0.94,2.92,4.77,0,5.67c2.33,7.27,2.38,15.39,0.16,24.38c0.95,8.17-0.22,15.2-3.51,21.1
	c-1.12-0.05-1.27,3.87-3.36,1.8c-1.55-1.53-1.03-16.55-0.35-18.37c2.19-5.91,0.74-10.76,0.97-15.79c0.33-7.06,2.73-14.42,5.72-20.68
	C494.72,582.67,495.19,583.33,495.1,583.94z"/>
<path class="st12" d="M411.46,194.28v1.83c0.08,1.65-0.26,2.55-1.91,2.01c-2.53,2.66-3.36,6.05-3.57,9.63
	c1.02,2.75-0.38,7.11-3.58,7.7c3.67,1.6,3.62,3.69-0.05,5.25c1.16,0.58,1.16,1.27,0.09,2.08c3.94,0.02,3.89,3.02,0,3.78
	c-0.7,3.35-1.42,5.07-3.78,1.89l0.23-11.59c0.09-4.61,1.55-9.13,3.05-14.18C403.44,197.65,407.36,195.86,411.46,194.28z"/>
<path class="st7" d="M602.88,483.72c0.18-2.09-0.27-4.25-1.89-5.67c-1.67-0.52-1.64-1.15,0-1.89c2.26-6.05,3.49-12.59,3.77-19.04
	c-2.77-3.33-2.87-6.38,1.63-8.02l2.23-0.19C612.97,446.86,603.01,483.44,602.88,483.72z"/>
<path class="st11" d="M567.21,438.57l1.86,6.86c1.06,3.71-1.68,4.05-3.66,0.96c-1.17,0.31-2.51-0.37-3.74-0.33
	c-1.88,0.72-4.46-0.73-6.1-2.22c-0.95-0.62-2.6-0.31-3.69-0.45l0.2-1.53c1.59-1.43,4.35-3.2,4.98-5.44
	C559.66,432.48,566.14,434.16,567.21,438.57z"/>
<path class="st5" d="M438.38,192.42c0.21,1.25-0.29,2.66,0,3.89c-0.54,1.65-1.17,1.63-1.89,0c-0.86,6.45-20.44,5.99-18.77-1.48
	c-0.93-0.46-1.75-1.16-2.2-2.11L438.38,192.42z"/>
<path class="st15" d="M653.93,303.6c-8.15,0.33-17.3,2.43-24.58-1.4C637.74,300.66,646.78,298.23,653.93,303.6z"/>
<path class="st7" d="M472.34,199.64c-0.25,2.04,0.86,5.49-1.53,6.41c-2.4-2.11-2.61-5.15-2.16-8.23
	C469.84,198.44,471.51,198.31,472.34,199.64z"/>
<path class="st20" d="M899.79,288.96c-0.8-0.06-1.79,0.19-2.81-0.01c-0.96-0.19-1.44-1.26-0.7-2.37c0.41-0.62,1.29-1.12,2.01-1.41
	C899.82,285.78,899.68,287.55,899.79,288.96z"/>
<path class="st1" d="M455.5,321.35c3.07-5.19,8.88-3.97,10.72,1.49c0.44-3.42,5.07-2.87,6.61-0.29c0.25-3.71,1.83-3.64,2.82,0.03
	c2.26-5.67,7.56-5.79,9.37,0.22c14.82,2.43,25.69,8.46,32.62,18.11c-1.68,11.8-4.27,23.55-7.77,35.26
	c-3.94,12.91-3.35,24.73,1.77,35.45c4.55,3.46,5.95,6.85,4.18,10.18c-6.32,6.03-16.49,9.12-24.72,11.28
	c-3.86-3.82-5.9-9.44-6.1-16.88c-1.34-21.23-3.3-42.24-5.87-63.02c-12.87-7.64-26.74-14.36-41.62-20.19
	c-8.3-4.45-11.28-8.74-8.95-12.85C434.79,315.94,449.78,316.4,455.5,321.35z"/>
<path class="st17" d="M411.6,323.27c2.33,0.54,4.41,2.51,6.22,5.91c12.97,9.21,26.14,18.22,39.5,27.01
	c1.09,12.26,5.68,23.65,13.77,34.18c1.73,4.23,8.67,44.01,7.74,46.67c-0.46,1.33-1.36,2.31-2.57,3.02c-0.91,0.82-1.43,3.1-3.01,3.4
	c-1.3,1.99-3.88,1.46-2.79-1.42c-0.13-1.84-1.19-3.8-3.19-5.89l-9.98-26.78c-12.4-15.83-23.46-32.85-27.69-52.7
	c-10.51-8.05-19.36-17.28-26.55-27.68l3.12-3.76c0.1-0.74,0.64-1.51,0.61-2.25C409.12,318.6,409.88,318.63,411.6,323.27z"/>
<path class="st21" d="M392.78,335.91c0.7-1.45,2.12-3.2,3.21-2.73c4.08,1.79,36.61,37.81,40.06,42.94l10.18,19.48
	c10.35,14.16,18.42,29.64,24.22,46.43l2.79,1.42l0.02,1.63c-0.3,5.29-1.61,5.66-4.64,1.31c-1.83,1.14-3.03,2.93-3.58,5.38
	c1.65,0.47,1.57,1.06-0.08,1.77c0.78,1.91,0.23,2.44-1.65,1.6c-0.7,5.57-3.29,4.58-6.75,0.88c0,0-4.48-9.74-13.45-29.23
	c-3.62-18.31-10.01-45.11-31.96-47.03c-10.57-8.36-18.42-19.28-23.57-32.78c-5.05-3.11-4.25-9.41,1.61-10.8
	C389.9,332.46,391.52,332.29,392.78,335.91z"/>
<path class="st4" d="M498.85,320.56c3.19-2.86,5.57-4.44,7.3,0.25c2.44,0.76,4.59,2.22,6.46,4.38c12.9,4.47,18.23,11.71,15.99,21.74
	c-6.26,12.46-10.63,25.2-13.13,38.24c0.13,7.66,1.79,15.02,4.98,22.09c5.78,2.74,8.02,6.15,6.75,10.22
	c-3.62,2.03-6.88,5.09-11.38,4.34l-6.44-7.02c-9.01-9.81-5.49-30.93-1.72-45.69l3.87-15.17c1.39-5.43,4.93-9.86,0.94-15.02
	c-9.21-11.9-30.48-7.38-27.44-16.1c-1.58-0.6-1.4-1.08,0.36-1.46C487.12,316.71,496.79,315.85,498.85,320.56z"/>
<path class="st19" d="M481.7,436.8c-1.64,1.19-3.02,3.19-5.44,3.25l-4.38-35.96c-1.69-13.84-17.73-29.98-17.08-36.79
	c0.49-5.11,1.26-8.59-3.44-12.08c-17.21-12.81-32.72-17.68-39.75-31.95c-1.41-4.91,0.16-5.45,3.79-1.89
	c13.47,12.33,29.86,21.53,47.1,28.18c7.53,11.56,11.3,17.35,11.3,17.35c3.64,23.21,6.95,46.22,9.94,69.02L481.7,436.8z"/>
<path class="st7" d="M423.28,319c0.89-5.08,5.2-4.16,5.28,1.15c6.57,16.97,40.74,21.86,48.58,26.23
	c10.66,5.95,6.85,18.23,7.37,27.83l1.64,30.1c0.55,10.11,3.04,19.8,4.94,28.78c-0.7,0.84-3.05,0.96-3.61,1.81l-2.73,0.25
	c-4.55-19.21-7.42-38.84-8.61-58.89c-1.15-10.65-4.99-19.16-11.53-25.54c-25.43-13.42-38.14-20.13-38.14-20.13
	c-4.81-2.55-7.13-5.72-6.97-9.52C418.13,316.1,419.38,315.4,423.28,319z"/>
<path class="st5" d="M529.5,317.97c14.93,8.84,19.86,14.95,12.95,32.62c-11.82,13.78-16.55,28.01-14.19,42.68
	c7.07,8.88,14.52,10.63,22.35,5.27c3.83-4.15,7.4-5.61,10.7-4.38c-1.76-5.4,6.01-9.34,9.6-4.74c-3.47,4.66-22.32,17.81-28.39,18.93
	l-1.92,1.7c-0.92,1.18-2.71,1.49-3.91,1.96c-5.11,2.79-8.84,1.16-12.91-2.35c-17.24-14.88-3.76-44.49,4.42-60.94
	c3.33-11.15-0.07-15.68-10.65-20.81c-3.69-3.48-5.48-6.44,0.12-8.41C518.37,313.24,525.93,314.29,529.5,317.97z"/>
<path class="st4" d="M419.51,321.07c12.03,11.76,26.1,20.85,43.24,24.92c24.79,5.88,12.81,68.21,24.74,88.9
	c-1.25,1.91-4.11,1.14-5.78,1.91c0.93-5.42,0.31-11.14-3.05-16.58l-4.84-40.54c-1.23-10.29-7.7-19.25-13.8-27.34l-32.69-18.37
	c-5.37-3.02-10.63-7.21-11.94-12.6C416.02,316.34,417.71,316.35,419.51,321.07z"/>
<path class="st11" d="M517.66,319.5c-1.8,6.99,11.63,8.76,14.24,15.5c7.74,19.98-20.54,33.15-12.83,60.4
	c2.73,9.66,9.33,14.19,17.62,16.61c-1.92,3.21-6.44,3.75-9.5,5.46l-9.91-8.36c-3.47-11.33-6.08-24.5-2.09-35.72l9.45-26.53
	c6.51-18.28-19.07-13.08-18.5-26.04C505.64,314.31,515.04,313.98,517.66,319.5z"/>
<path class="st20" d="M473.26,445.08c6.59,2.08,17.18,3.44,20.51,11.12c2.68,6.18,0.98,15,0.27,21.85
	c-0.53,5.12-10.13,7.21-14.39,7.06l-5.32-0.69c-2.55-8.58-3.75-17.37-3.62-26.37c-3.51-0.21-5.43-1.72-5.76-4.52l0.08-1.77
	c0.52-2.47,1.71-4.26,3.58-5.38C470.21,446.12,471.76,445.66,473.26,445.08z"/>
<path class="st18" d="M612.32,356.77c0.7,2.51-0.14,5.32,0.31,7.78c0.26,3.66-1.18,3.63-2.13-0.05
	c-11.9,10.09-25.75,17.72-39.59,24.92c-2.72,1.67-7.42,2.21-9.6,4.74c-5.01,2.04-6.49-1.97-2.26-5.21
	c-1.81-0.57-1.85-1.24-0.12-2.03c0.24-5.09,5.47-12.43,9.87-7.11c9.71-8.19,22.16-16.74,34.15-20.49
	C602.5,353.64,609.05,352.94,612.32,356.77z"/>
<path class="st2" d="M479.66,485.11c-2.78-0.1-7.24,1.28-9.58,2.68c-8.11-1.7-10.75-11.14-10.92-19.06
	c-1.12-4.84-1.8-12.73,4.16-13.59c0.74-0.31,1.3-0.89,1.65-1.6l9.28,0.44C474.92,460.55,474.58,482.54,479.66,485.11z"/>
<path class="st3" d="M617.69,404.42c0.41,0.87,0.27,1.84-0.16,2.45c-0.65,0.92-1.73,1.37-3.34,1.37l-24.68,0.03
	c-4.51,0.01-7.39,5.57-8.97,8.69c-1.64,4.82-5.19,6.49-9.87,4.39c-4.54,0.09-2.72-3.32,0.22-5.56c6.81-4.4,10.91-12.97,19.41-16.32
	c4.91-1.94,10.87,2.16,16.21,1.05C611.83,399.42,615.79,400.66,617.69,404.42z"/>
<path class="st12" d="M570.67,421.36c4.94,3.35,4.95,6.08,0.02,9.45c-0.99,0.96-2.2,1.64-3.51,2.08c-3.66,3.12-6.26,2.32-7.59-2.29
	c0.81-5.3,4.23-8.98,7.13-13.06c1.37-0.54,2.9-0.93,4.16-1.74L570.67,421.36z"/>
<path class="st12" d="M600.92,378.09c3.29-11.12,10.57-3.62,9.58-13.59l2.13,0.05c0.28,1.52,2.88,2.6,1.48,4.53
	C619.83,361.24,596.17,386.96,600.92,378.09z"/>
<path class="st11" d="M540.59,410.05c0.27-0.86,1.02-1.54,1.92-1.7C542.09,409.13,541.1,409.39,540.59,410.05z"/>
<path class="st7" d="M519.8,292.69c1.75-3.05,4.87-4.52,6.42-9.46l-25.92-29.58c-6.3-7.19-12.36-12.98-17.02-21.3
	c-4.19-7.5-12.05-14.01-10.67-22.56c2.6,1.69,5.11,5.09,6.38,8.4c11.02,28.9,48.09,46.78,64.89,73.19
	C535.74,296.02,526.68,296.1,519.8,292.69z"/>
<path class="st9" d="M777,545.64c7.07-1.04,4.64,17.3,3.54,21.18c1.53,23.8-7.37,40.89-28.65,17.1
	c-26.62-18.08-26.17,12.1-22.29,30.41c1.27,12.49-16.42,18.22-22.43,9.08l0.85-18.87c0.67-14.77-0.75-29.22-1.28-43.13l-1.54-2.04
	l0.17-3.7c8.22-7.6,17.68-15.65,27.12-22.78c9.26-13.13,21.98-12.73,35.93-7.56C771.33,532.07,774.18,538.84,777,545.64z"/>
<path class="st8" d="M766.11,502.26c5.32,6.66,5.3,15.65,8.01,24.17c2.12,6.67,5.89,12.6,2.88,19.22c-3.03,0.44-5.33-1.18-6.47-4.68
	l-4.23-12.95c-27.81-6-21.85,1.18-33.71,9.58c-17.59,12.46-17.66,19.15-27.22,18.06c0.44-9.72-0.64-18.95-0.05-30.2
	c10.13,3.17,15.91-2.41,22.9-7.2c6.23-4.27,12.13-7.2,17.22-13.11C750.57,499.18,759.85,500.5,766.11,502.26z"/>
<path class="st11" d="M735.99,433.12c0.04,0.52-0.18,1.08-0.09,1.59c1.16,3.22,2.9,5.69,5.23,7.42c0.26,0.44,0.08,1.37,0.06,1.89
	c1.78,2.24,2.77,4.72,0,6c4.83,2.89,0.38,7.66-3.11,10.73c-8.91,15.14-18.79,31.08-39.02,30.16c-1.7-0.08-2.62-1.28-2.9-2.99
	c-0.88-0.97-1.92-1.79-3.1-2.38l-0.86-6.02l3.8-1.72c18.04,12.33,32.64-31.96,24.99-43.98c-0.58,4.31-2.35,7.21-5.29,8.7
	c-3.93,14.77-18.96,16.64-31.42,12.3c-2.45-0.85-3.71-2.41-4.23-4.99c-3.38-1.38-3.83-5.02-5.34-7.86
	c3.24-3.07,8.25-3.91,15.03-2.52c5.91-2.24,11.61-4.48,17.09-6.72c-2.67-3.96-2.49-4.3,2.2-3.81c2.6-6.94,10.27-11.81,15.41-6.55
	C729.31,422.62,735.12,428.5,735.99,433.12z"/>
<path class="st8" d="M581.69,315.02c3.91,0,7.79-0.12,11.68-0.53c0.56-4.16,2.29-3.18,4.04,0.33c2.97,0.1,6.27,0.44,8.73,1.83
	c3.1,1.75,3.72,5.1,2.74,8.23c0.28,1.46,0.6,3.54-0.36,4.11c-2.66,1.58-11.26,2.6-14.74,2.53c-0.39,1.71-1.08,1.77-2.05,0.25
	l-7.64,0.44c-7.42,3.18-14.42,5.77-21,7.76l-2.07,0.28c-1.61,3.81-3.75,3.77-5.36-0.03c-1.61-0.08-2.36-0.83-2.89-2.24
	c-1.47-3.88-4.69-24.86,2.85-22.98c0.19-1.45,0.54-3.53,1.63-3.78C561.93,310.15,580.32,309.76,581.69,315.02z"/>
<path class="st20" d="M562.94,346.02c-1,1.47,0.2,6.51,1.78,7.58c18.95,12.79,43.21-12.58,47.61,3.17c-3.23,0.39-6.3,1.52-9.38,2.55
	c-8.59,3.68-17.39,7.34-26.42,10.98l-3.79-2.08c-11.06,11.17-29.56-7.9-15.57-18.49C553.28,344.59,560.11,340.03,562.94,346.02z"/>
<path class="st22" d="M591.72,331.78l0.18,1.99c-6.13,0.91-11.3,3-15.49,6.24c-3.13-0.05-7.92-1.61-11.35,0
	c-0.67,1.22-1.33,1.2-1.98-0.04c-0.94-1.69,0.1-3.53,1.25-3.75c1.42-0.27,4.97,0.73,6.41,0.05
	C577.82,332.93,585.03,328.14,591.72,331.78z"/>
<path class="st3" d="M561.01,340.26c0.47,2.39,3.6,3.31,1.93,5.76c-3.09-1.63-4.01,3.23-5.77,3.71
	c-10.63,11.02-4.01,19.77,9.71,22.4l1.88,3.81c5.03,0.57,4.82,2.36,0.03,3.88c-4.73,0.57-4.65,7.32-9.87,7.11
	c-18.59,4.04-26.39-15.65-14.82-30.25c-4.46-2.75-3.35-4.29,1.86-3.38c2.27-4.64,4.52-9.22,6.75-13.74l2.93,0.68
	C557.43,340.31,559.24,340.5,561.01,340.26z"/>
<path class="st23" d="M610.64,332.31c-4.92-0.34-9.79,1.46-14.69,0.4c-1.98,1.63-2.69,1.34-2.17-1.19l15.1-6.64l1.85,0.08
	C615.19,327.82,616.14,330.75,610.64,332.31z"/>
<path class="st20" d="M591.72,331.78l2.05-0.25l2.17,1.19c-4.35,5.79-13.16,4.48-19.54,7.3
	C573.65,335.47,590.91,331.88,591.72,331.78z"/>
<path class="st15" d="M618.11,328.87c4.93,1.17,4.51,2.93-0.42,3.89c2.16,3.14,2.65,4.14-1.62,5.54c-1.2,0.06-2.39,0.04-3.59-0.03
	c0.51-2.37-1.43-4.02-1.85-5.97c-0.48-2.23,1.37-5.04,0.08-7.35l1.52-0.16C616.69,321.78,619.35,323.67,618.11,328.87z"/>
<path class="st20" d="M563.08,339.98c0.61-0.12,1.41,0.3,1.98,0.04C564.93,342.41,563.25,342.56,563.08,339.98z"/>
<path class="st22" d="M588.24,606.63c1.7,9.36-3.89,18.13-3.82,28.77c-5.3,0.85-8.56-0.01-12.74-0.68
	c2.64-25.28-8.79-1.73-24.75-27.74c-1.18-0.08-1.75,1.1-1.6,2.62c-0.93,0.11-1.86,0.27-2.78,0.45c-0.9-0.7-1.59-0.5-2.08,0.6
	c-0.59,0.05-1.32,0.21-1.89,0.08c-3.82,1.8-7.61,3.55-11.37,5.25l-1.79-1.87l-4.77-0.33l-9.51-11.59c-9.91-2.17-14-6.18-12.29-12.05
	c-2.83-0.63-2.78-5.69,0.11-6.4c0.01-0.51,0.39-1.02,0.53-1.51c0.83-1.81,2.25-2.75,4.26-2.38c8.32,5,16.87,8.38,25.64,10.13
	c3.56-9.17,7.25-18.26,11.04-27.26c-0.39-1.72,0.14-3.57-0.05-5.3c2.66,0.37,4.2-1.98,4.78-4.96l6.81-34.92
	c0.54-2.78,1.89-5.52,3.62-6.2c1.86-0.73,4.32-0.86,6.36,0.15c15.84,7.86,23.51,0.52,23.75,15.7l0.81,50.41
	c0.07,4.54,5.55,9.77,2.17,14.39C584.68,597.46,587.36,601.79,588.24,606.63z"/>
<path class="st1" d="M860.09,313.73c0.73-1.6,1.42-1.51,2.07,0.17c1.6,0.55,3.54,1.9,3.12,3.12c-5.53,15.81-50.32,23.95-66.51,23.73
	c-6.92,1.41-5.32,7.73-3.77,13.35c8.81,19.68,14.9,37.51,18.5,59.35c1.06,6.41-1.56,22.29-6.49,25.52
	c-1.4,7.31-18.96,1.7-17.34-4.86c-1.06-2.19-3.06-3.74-5.23-4.78l-2.99-3.86c8.74-17.94,8.16-33.73-1.72-47.37
	c-7.78-13.61-15.33-27.36-22.66-41.24c-2.09-7.21-2.04-10.7,4.95-13.21c0.97-0.35,9.43-2.47,10.53-2.28
	c0.75,0.13,1.4,0.82,2.03,1.67c-0.4-3.07,3.16-2.92,4.16-0.02l1.6-1.89l21.24-1.83c-0.12-5.51,4.22-5.04,5.51,0.04
	c3.05,0.02,6.03-0.82,9.06-1.1c2.06-0.19,4.21-0.09,6.29-0.11C840.26,317.97,846.19,312.56,860.09,313.73z"/>
<path class="st6" d="M804.66,221.15c1.38,8.05,6.17,14.75,9.97,22.56c4.51,9.27,12.68,14.48,20.42,20.92
	c9.37,7.8,12.33,23.45,2.49,29.88c-1.94-5.82,1.74-13.91-1.16-19.88c-7.73-15.85-37.54-26.28-37.96-39.73
	c-0.1-3.08,4.62-5.31,4.01-8.23C801.71,223.19,803.6,222.67,804.66,221.15z"/>
<path class="st14" d="M869.27,309.2c3.57-5.51,8.03-2.39,4.03,2.81c-1.37,4.74-7.63,4.42-11.14,1.89l-2.07-0.17l0.07-2.75
	C862.47,308.87,866.24,309.76,869.27,309.2z"/>
<path class="st6" d="M838.99,302.56c-0.96-0.15-2.9-0.04-3.3-1.55c-0.32-1.23,0.83-2.41,1.79-3.02
	C839.31,298.67,838.89,300.98,838.99,302.56z"/>
<path class="st13" d="M888.67,313.4c3.01,2.24,4.1,5.42,7.83,5.82c2.71,0.64,4.39,4.44,6.99,5.42c1.77,0.59,1.84,1.31,0.19,2.18
	c3.03,7.95-15.52,34.68-21.9,36.18c-2.2,0.52-3.29,0.29-4.95-2.02c-2.66,3.49-4.55,4.71-8.6,2.93
	c-5.77,7.09-10.25,14.89-13.44,23.42c-0.59,7.18-2.47,12.83-5.64,16.98l2.54,1.47c-4.15,15.31-8.86,30.52-14.12,45.64l-3.93,1.76
	c-2.86-2.18-5-4.18-7.15-7.06c-8.64-5.24-10.09-14.09-4.36-26.56c-0.57-9.24-0.54-18.46,0.09-27.65l10.62-14.09
	c3.35-10.16,7.23-20.11,11.66-29.83c12.57-6.51,23.5-14.77,32.77-24.77c-3.89-2.34,1.65-9.2,5.48-9.77
	C884.65,313.75,886.77,312.82,888.67,313.4z"/>
<path class="st19" d="M882.77,313.44c0.94,4.38-3.87,6.24-5.48,9.77c-10.61,10.86-22.84,19.96-36.69,27.32
	c-14.24,19.36-22.2,44.47-18.46,69.16l-3.52,12.93c0.56,4.35-0.13,6.98-2.06,7.89c-0.9-0.55-2.8-0.02-3.9-0.25
	c-1.68-0.42-2.97-1.31-2.71-2.67c3.54-18.84,5.24-30.74-1.65-50.06c-2.5-18.94-3.79-41.43,17.39-49.22
	c19.56-1.99,35.14-14.22,49.62-26.08c-0.11-1.7,0.43-1.81,1.58-0.45C878.77,311.26,880.8,313.11,882.77,313.44z"/>
<path class="st17" d="M826.5,446.11c-1.98-2.58-7.52-3.28-9.95-5.6c-0.76-4.88,0.73-9.45,2.61-14.73c6.03-16.91-9.57-28.3,7.45-56.8
	c3.58-6,3.77-14.31,9.09-19.35c5.45-5.17,13.35-6.75,19.55-10.96c7.74-5.24,14.4-11.21,22.04-15.46c0.83,9.57-22,19.5-29,26.18
	c-3.14,3-5.89,12.26-7.2,16.9c-9.19,32.74-17.34,12.59-17.02,43.57c0.08,7.64-0.1,13.49-3.07,20.15
	C815.52,442.26,834.85,446.38,826.5,446.11z"/>
<path class="st4" d="M772.91,319.15c3.3,0.75,4.7,1.6,1.66,3.87c-5.31,2.29-13.31,1.73-15.68,5.59c-1.35,2.19-0.96,5.28,0.55,7.92
	l22.14,38.6c16.83,29.34,9.73,23.17,2.86,54.19c-6.17-2.97-11.86-7.68-18.78-8.16c-1.72-0.27-1.73-0.85-0.13-1.71
	c0.6-2.71,3.21-4.91,7.82-6.59c6.06-5.15,9.09-12.32,9.09-21.51c-5.04-0.22-4.96-1.92-0.27-3.67c-1.65-2.65-3.44-5.34-5.36-8.09
	l-2.19,0.15l-5.42-11.44c-2.91,2.3-3.76,1.24-1.82-2.01c-2.17-1.94-3.8-5.08-1.72-7.36l-3.81-6.03c-1.63-0.07-1.66-0.69-0.28-1.8
	c-7.83-8.19-15.31-21.4-5.62-30.17c1.91-3.49,4.05-3.33,5.46,0.38c1.73,0.19,3.18-0.51,4.34-2.1
	C765.6,315.37,772.22,314.51,772.91,319.15z"/>
<path class="st20" d="M789.67,434.1c5.47,2.46,11.12,5.34,17.34,4.86c2.67-5,5.43-4.29,5.63,1.3c-0.1,5.76,4.04,8.39,5.04,13.07
	c1.93,9.03-12.59,13.3-19.39,11.37c-10.6-3.01-15.41-11.43-17.41-21.15c-0.49-2.4-4.5-3.99-4.1-6.27c0.24-1.36-0.25-5.32,2.69-5.19
	C782.52,432.23,787.02,433.19,789.67,434.1z"/>
<path class="st23" d="M765.53,419.44c0.11,0.55-0.01,1.17,0.13,1.71c2.26,8.28,3.17,19.57-5.56,23.1l-6.24-2
	c-1.4-0.48-3.86-2.01-3.49-3.91c-2.54-1.63-4.45-3.53-5.73-5.7c-5.52-1.09-10.5-4-14.93-8.72c-3.06,1.09-7.36-1.39-5.59-4.4
	c-1.15-0.36-1.24-0.98-0.37-1.86l-1.57-1.76c-2.96,0.25-3.5-0.61-1.47-2.63c-4.06-2.85-6.74-5.83-8.04-8.94
	c0.74-1.13,1.48-2.28,1.81-3.6c0.32-5.25,4.56-5.02,12.7,0.69c8.19,10.91,23.92,15.35,37.26,15.53L765.53,419.44z"/>
<path class="st24" d="M854.15,404.56c4.16-0.17,5.05,2.87,2.67,9.13l-0.71,13.17c-0.24,2.98-0.65,6.72-3.3,9.67
	c-5.64,6.27-5.58,15.66-11.35,20.95c-4.61,1.64-5.53-2.56-7.82-4.31c0.64-15.7,16.55-40.7,15.5-48.86
	C850.56,399.13,852.79,399.43,854.15,404.56z"/>
<path class="st12" d="M760.1,444.25l-2.16-0.24h-1.89c-0.68-0.5-1.4-1.5-2.18-1.76C755.94,442.28,759.26,441.87,760.1,444.25z"/>
<path class="st23" d="M758.11,445.95c-0.68-0.64-1.31-1.39-2.06-1.94h1.89L758.11,445.95z"/>
<path class="st10" d="M811.26,302.95c-1.15,1.34-1.89,1.15-2.22-0.58l-1.74-0.81c-3.67-19.39-38.62-26.1-32.23,1.94l-3.78,2.33
	c-0.88,5.69-8.32,5.57-9.3,0.07c-1.88-5.89-4.17-13.44-1.2-19.62c3.86-8.03,11.77-10.6,19.72-10.76
	C803.53,275.03,820.74,300.2,811.26,302.95z"/>
<path class="st18" d="M761.99,305.89c3.1-0.07,6.2,0.35,9.3-0.07c2.72-4.84,5.27-3.37,3.38,1.86c3.28,4.74-0.41,8.59-11.07,11.54
	c1.08,2.32,0.11,3.19-2.19,2.09c-1.82-0.06-3.64-0.22-5.46-0.38c0.09,1.63-0.38,1.62-1.34,0.14c-3.22-1.37-6.46-1.48-9.7-0.32
	l-2.17-3.71c-2.99,5.18-7.21,3.88-7.47-1.89c-3.8-5.6,3.26-8.34,5.41-2.05c3.58-4.64,7.6-6.98,12.08-7.02
	C755.83,306.94,758.92,305.96,761.99,305.89z"/>
<path class="st15" d="M733.33,289.04c4.89,2.89,10.11,4.31,16.42,6.46c3.85,1.32,2.53,7.87,3.02,10.59
	c-2.06,4.7-7.1,6.98-12.08,7.02c-3.06-1.46-3.19-3.81-0.39-7.07c-3.24-3.76-8.11-5.73-14.61-5.91l-2.29-3.94
	C721.57,292.67,730.31,287.25,733.33,289.04z"/>
<path class="st18" d="M811.26,302.95c0.59,5.82-2.8,10.83-4.17,16.37l-5.51-0.04l-2.33-0.44c-4.1-2.9-2.49-9.97,2.31-11.1
	c-0.8-4.43-0.53-4.86,4.01-4c-0.55-5.31-0.03-5.44,3.47-1.37C809.75,302.27,810.54,302.94,811.26,302.95z"/>
<path class="st18" d="M708.9,415.7l7.55-0.03c1.83,0.82,3.74,0.9,5.73,0.22c2.34-0.03,3.99,0.74,1.57,1.76
	c-0.83,0.88-0.7,1.5,0.37,1.86c0.42,3.55,5.18-0.34,6.84,0.77c5.33,3.55,9.79,8.02,13.68,12.36c1.25,0.87,1.29,1.52-0.12,2.24
	c-2.73-1.29-5.56-1.81-8.53-1.77c-8.04,0.11-11.63-15.23-18.5-8.81c-2.81,2.62-4.86,5.4-8.47,4.63c-3.84,0.12-4.54-0.01-3.98-3.99
	c-5.53-0.36-8.17-5.05-3.5-8.84C704.21,417.47,706.51,416.89,708.9,415.7z"/>
<path class="st12" d="M750.37,438.34c-2.47-0.01-4.76-1.19-5.85-3.46l0.12-2.24C746.41,434.62,751.19,434.14,750.37,438.34z"/>
<path class="st18" d="M750.71,461.04c-5.18,0.71-5.4-5.49-5.64-9.46C747.6,454.3,749.68,457.45,750.71,461.04z"/>
<path class="st18" d="M744.96,449.69l-3.78,0.33c-0.13-2-0.06-4,0-6C743.62,444.82,744.81,447.26,744.96,449.69z"/>
<path class="st18" d="M741.12,442.12c-1.98,0.43-3.63-0.42-4.22-2.66c-0.34-1.29-0.73-3.04-1.01-4.76
	C738.68,436.2,739.58,439.5,741.12,442.12z"/>
<path class="st4" d="M581.69,315.02l-26.08-0.01c-0.47,0.83-1.11,0.78-1.89,0.06c-0.63-0.9-1.47-1.11-2.04-0.07
	c-1.26,5.1-3.56,4.88-5.83,0.31c-1.64,0.76-2.21,0.39-1.83-1.42l-2.44-2.08c-9.5-1.65-12.47-4.12-8.91-7.42
	c9.92-0.82,22.5,7.67,25.95,1.03c1.97-3.79-0.63-7.71-1.17-10.87C570.44,302.86,584.49,304.55,581.69,315.02z"/>
<path class="st11" d="M515.59,298.59c1.97,1.32,3.22,1.9,6.27,1.94c1.01-0.08,2.1,0.23,3.1,0.07l4.49,3.38
	c1.06-0.01,2.15,0.5,3.2,0.41c0.24,7.21,12.53,2.14,11.36,9.5c-2.3,1.71-5.43,1.97-9.37,0.79l-24-10.24
	c-0.13,5.47-6.46,5.23-7.64-0.09c-1.07,1.69-4.03,1.94-4.32-0.47c-3.24-1.54-3.68-3.49-0.46-5.21
	C504,298.03,509.8,298.37,515.59,298.59z"/>
<path class="st4" d="M521.86,300.53c-0.96,1.13-1.99,1.77-3.03,1.78c-2.02,0.01-4.7-1.66-3.24-3.72
	C517.65,298.67,521.3,297.83,521.86,300.53z"/>
<path class="st4" d="M529.45,303.97c-0.87,0.01-1.82,0.09-2.86-0.26c-1.14-0.38-2.87-1.6-1.62-3.12c1.35-0.21,2.91-0.45,4.14,0.76
	C529.81,302.06,530.2,303,529.45,303.97z"/>
<path class="st6" d="M476.23,302.55c5.46,0.89,4.91,2.59,0.08,4.74c-0.12,1.99-2.23,3.45-6.33,4.37c-4.64,3.99-9.47,7.22-14.48,9.68
	c-9.07,0.76-18.32,0.67-26.94-1.21l-5.28-1.15c-5.16-1.65-4.59-4.46,0.5-5.73c7.82-1.88,8.23-9.6,18.9-13.24
	c1.15-5.77,3.09,13.54,14.46,7.4C463.66,303.89,469.31,301.73,476.23,302.55z"/>
<path class="st4" d="M489.17,298.6c3.64,1.77,4.16,5.56,0.28,7.17c0.34,3.71-2.8,4.1-3.84,0.43c-2.21,1.67-7.31,4.06-9.3,1.1
	l-0.08-4.74C480.4,301.9,484.55,297.74,489.17,298.6z"/>
<path class="st11" d="M493.45,298.54c3.09,0.17,3.68,2.73,1.86,5.06c2.16,3.29-4.34,5.32-5.87,2.17c0.08-2.39-0.02-4.79-0.28-7.17
	C490.54,298.86,492.05,298.5,493.45,298.54z"/>
<path class="st4" d="M498.22,298.66c-0.15,1.75-0.01,3.51,0.46,5.21c-1.34,2.85-2.76,2.87-3.36-0.27c-1.12-1.47-1.65-3.25-1.86-5.06
	C495.02,298.58,496.66,298.83,498.22,298.66z"/>
<path class="st3" d="M540.44,562.7c0.91,3.99-4.29,30.24-10.37,30.99c-11.94,1.49-24.14-13.26-30.58-11.48
	c3.82-14.09,13.97,6.25,24.44-1.48C533.18,573.91,535.93,562.61,540.44,562.7z"/>
<path class="st3" d="M498.96,583.73l-0.11,6.4c-1.28,4.89-2.98,4.44-3.75-0.52c0.41-1.79-0.28-3.85,0-5.67L498.96,583.73z"/>
<path class="st0" d="M498.85,590.13c11.25,14.47,8.37-3.68,26.57,23.97c4.89-0.33,3.87,2.56-0.12,4.06
	c-0.86,2.67-34.62,16.87-33.55,16.92c-1.43-15.26-0.09-30.57,3.35-45.48L498.85,590.13z"/>
<path class="st12" d="M538.58,610.73c-1.67,4.24-7.32,3.56-9.44,7.42c-0.75-0.64-2.86,0.45-3.84,0.02l0.12-4.06
	C530.12,613.78,533.65,609.56,538.58,610.73z"/>
<path class="st9" d="M595.05,286.16c-0.08,6.08-8.09,3.73-7.24,10.43c-3.97,2.5-8.86-1.07-11.6-3.84
	c-5.29-5.03-22.09-17.67-21.41-24.36c-4.71-5.84-2.97-20.2,2.78-24.51c14.18,9.91,24.93,24.11,34.1,39.56
	C592.6,284.99,594.17,285.51,595.05,286.16z"/>
<path class="st25" d="M557.57,243.87c0.12,8.27-1.95,16.32-2.78,24.51c-21.09-13.33-1.59-25.14-17.27-31.23
	c-1.66-0.64-2.68-2.64-2.68-4.27c0-0.72,0.01-1.64,1.93-3.14C544.92,233.15,554.09,236.38,557.57,243.87z"/>
<path class="st18" d="M587.81,296.58c3.64,5.93,8.32,11.37,9.6,18.24c-1.32-0.05-2.73-0.47-4.04-0.33c0.32-4.39-2.58-7.28-7.2-8.95
	c-3.26-1.18-4.23-4.88-6.06-6.9c-2.6-0.06-3.92-0.81-3.98-2.25c-0.56-0.51-1.05-1.1-1.4-1.77l1.47-1.89
	C579.76,292.42,585.62,293.02,587.81,296.58z"/>
<path class="st15" d="M566.76,292.27c-3.42-0.79-5.2-1.62-6.86-4.88C563.19,287.37,566.66,288.58,566.76,292.27z"/>
<path class="st13" d="M436.48,196.31c1.72,8.69,3.35,17.52,4.89,26.48c10.02,27.13,14.09,58.42-14.53,75.49
	c-1.59,5.42-10.67,10.78-14.69,5.53c-6.99-7.76,5.75-31.47,4.87-45.18l-2.05-31.91c-1.79-27.85-2.44-3.84,2.74-31.9
	C423.47,197.69,430.2,196.31,436.48,196.31z"/>
<path class="st13" d="M406.17,325.23c-0.8,5.96,15.66,20.51,20.26,22.89c5.27,2.73,7.92,8.35,8.64,14.03
	c1.12,8.83,13.19,30.47,19.63,37.17c9.7,10.11,11.08,24.25,16.62,36.71l1.68,3.79c0.59,1.33-1,2.08-2.55,2.21
	c-8.67,2.5-8.46-17.09-15.04-26.49c-6.4-9.15-13.26-17.35-17.28-27.88c-3.58-9.39-10.5-15.77-17.11-22.45
	c-8.64-8.74-22.68-28.06-28.25-29.29c-4.86-2.69-3.54-5.08,2.01-5.21c-1.45-4.62,1.62-5.95,5.76-4.86
	C402.44,325.86,404.32,325.64,406.17,325.23z"/>
<path class="st8" d="M408.01,215.1l0.57,54.53c-8.96,16.54-6.27,30.59-12.53,39.66c-1.56,2.26-0.86,7.68-4.78,6.46l-2.35-0.77
	c2.27-5.57,3.07-11.03,2.4-16.39c3.47-17.76,6.05-35.5,7.74-53.24l-0.39-7.43c1.2-4,2.46-7.78,3.78-11.35v-3.78
	c0.99-0.79,0.96-1.49-0.09-2.08c-0.08-1.74,0.17-3.5,0.05-5.25C403.74,211.17,406.62,210.28,408.01,215.1z"/>
<path class="st22" d="M391.26,315.74c0.27,1.75,0.21,3.59,0.34,5.36c5.22,3.69,6.28,6.89,3.19,9.6c-1.07,1.56-1.73,3.34-2.01,5.21
	c-1.11-0.25-2.44,0.41-3.58,0.27c-11.63-10.77,4.53-30.97-1.45-37.76c3.41-7.39,2.67-15.74,3.94-24.36
	c0.76-5.19,4.72-9.3,3.28-15.48c-1.21-5.19,1.75-9.74,4.09-13.24c7.05,5.44,2.75,16.78-0.11,24.55
	c-4.16,11.33-3.57,22.45-4.35,34.04C394.3,308.31,390.66,311.83,391.26,315.74z"/>
<path class="st5" d="M426.84,298.28c3.32-1.16,3.03-0.3,0.48,2.08c-1.14,4.71-5.38,8.1-3.53,12.9c0.63,1.64-0.93,4-0.5,5.73
	c-1.35-0.29-2.55,1.98-3.77,2.07l-4.12,0.31c-1.32,0.1-2.42,1.6-3.79,1.89c-1.58,0.33-3.26-0.05-4.82-0.29
	c-0.39-10.74,5.46-11.32,5.37-19.16L426.84,298.28z"/>
<path class="st8" d="M400.54,325.84c-0.8,2.61-3.26,4.05-5.76,4.86c-0.78-3.33-2.93-6.13-3.19-9.6
	C394.96,321.82,397.62,324.13,400.54,325.84z"/>
<path class="st23" d="M408.01,215.1l-5.6,0.35c-0.2-3.05,1.01-5.97,3.58-7.7C408.66,209.29,407.98,212.5,408.01,215.1z"/>
<path class="st8" d="M409.55,198.11l1.91-2.01C412.85,198.59,410.95,201.81,409.55,198.11z"/>
<path class="st11" d="M723.39,296.19c2.85-0.06,21.69,2.06,20.6,10.33c-0.29,2.22-2.57,4.23-3.3,6.59
	c-1.94,0.02-4.78-0.22-5.41,2.05c-3.24,4.72-14.49,4.31-16.91-1.03c-0.62-4.04,0.82-5.56,4.43-6.54
	c-9.73,1.73-14.36-0.14-13.89-5.59C710.44,297.02,718.37,296.29,723.39,296.19z"/>
<path class="st4" d="M708.91,302c3.26,5,19.08-1.59,18.74,4.87c-0.4,7.52-0.85,1.3-9.29,7.26c-3.97,5.5-12.26,6.29-16.94,1.26
	c-1.03,0.99-2.41,1.11-4.15,0.36c0.3,5.58-6,5.19-7.24-0.09c-4.01-3.73-0.79-5.43,3.52-7.26c1.73-0.26,3.11-3.24,5.39-2.68
	c1.81-1.35,3.98-2.45,6.52-3.28L708.91,302z"/>
<path class="st3" d="M684.13,311.66c3.3,2.43,2.47,4.07-1.55,3.48c-1.11,1.41-2.56,2.77-4.35,4.06l-0.5,4.37
	c3.09,3.46,3.23,6.28,0.42,8.45c-2.12,5.07-6.02,4.01-6.36-1.38c-1.75-0.11-1.91-0.78-0.55-1.96c-1.28-4.57-0.76-9.99-0.76-15.01
	c0-2.67,1.5-5.54,4.24-5.98C679.96,305.37,687.23,303.94,684.13,311.66z"/>
<path class="st8" d="M686.44,309.48c1.91,3.29,0.8,4.29-2.31,2.18c-1.77-3.37-6.38-2.17-9.41-3.96c4.19-3.79,8.82-7.43,14.51-8.12
	C687.09,303.82,686.11,306.52,686.44,309.48z"/>
<path class="st15" d="M693.54,308.41c-1.4,2.31-3.03,4.55-3.52,7.26c-0.02,5.42-4.44,6.11-7.29,1.51c-1.69-0.45-1.72-1.13-0.15-2.02
	c0.65-1.07,0.84-2.46,1.55-3.48c0.57-0.83,1.83-1.22,2.31-2.18L693.54,308.41z"/>
<path class="st11" d="M705.45,302.45c-0.3,3.45-3.61,4.01-6.52,3.28c-1.24-1.72,0.67-3.03,1.77-3.32
	C702.29,302.01,704.11,302.2,705.45,302.45z"/>
<path class="st17" d="M427.31,300.37l-0.48-2.08c0.21-4.42,4.71-5.98,7.57-9.82c24.7-33.07-0.22-52.91,2.07-92.16h1.89
	c3.08,13.07,4.46,26.06,10.03,39.93c5.08,12.66,11.53,27.39,4.55,40.94C447.58,287.57,436.61,294.94,427.31,300.37z"/>
<path class="st5" d="M580.11,298.65c-1.76,0.02-3.23,0.47-5.34,1.76c-0.3-2.33,1.03-2.94,1.37-4.01
	C578.05,296.24,579.01,297.44,580.11,298.65z"/>
<path class="st4" d="M569.07,445.42c12.26,2.82,24.94,4.75,37.32,3.68c0.46,2.82,0.79,6.05-1.63,8.02
	c-3.4,0.57-43.31-3.48-39.35-10.73L569.07,445.42z"/>
<path class="st4" d="M600.99,476.16c-0.21,0.55,0.13,1.31,0,1.89c-7.91,4.4-29.76,2.91-41.02-6.12c-2.91-2.34-8.48-2.36-8.1-6.83
	C562.26,464.58,580.68,479.48,600.99,476.16z"/>
<path class="st4" d="M561.67,446.05c-1.02,1.39-2.7,1.95-4.04,0.95c-1.05-0.78-1.31-2.22-2.06-3.17
	C557.62,444.18,561.04,443.49,561.67,446.05z"/>
<path class="st4" d="M548.34,464.82c-1.19-0.02-3.02,0.61-4.06-0.89s0.94-2.26,1.58-3.26C547.38,461.54,548.37,463.06,548.34,464.82
	z"/>
<path class="st24" d="M876.88,311.79l-1.58,0.45c-0.71,1.74-1.37,1.63-2-0.22c-0.22-1.78-2.27-3.14-4.03-2.81
	c-0.26-5.65,0.99-11.2,2.16-16.72c23.17-6.2-0.16-67.23-7.33-83.47c-1.74-3.93-4.66-7.42-1.98-10.9
	c16.41,12.25,17.76,44.64,21.66,63.32C887.44,279,881.36,295.55,876.88,311.79z"/>
<path class="st9" d="M906.68,335.97c-5.4,2.75-1.03,7.86-13.81,21.73c-5,5.42-7.43,12.52-12.69,17.67
	c-15.29,14.97-17.15,15.25-12.63,34.37c-13.96-4.55-2.08,13.41-11.42,17.12c-7.61-3.55-0.45-15.43-1.97-22.3
	c-0.82-0.56-1.53-1.17-1.83-1.94c-0.81-2.08,17.02-37.54,19.31-39.86l5.19-1.78c7.17-2.32,11.94-7.98,15.54-14.99
	c3.55-6.91,9.88-11.99,11.32-19.17C906.29,328.8,906.09,332.82,906.68,335.97z"/>
<path class="st22" d="M398.66,237.91v-7.56v-1.89l3.78-1.89C402.44,230.76,403.54,236.57,398.66,237.91z"/>
<path class="st12" d="M542.55,610.05c-0.7,0.14-1.37,0.54-2.08,0.6C540.07,608.82,542.6,607.43,542.55,610.05z"/>
<path class="st13" d="M614.41,424.65c-0.1,0.57-0.12,1.68-0.43,2.23c-3.01,5.33-5.53,8.19-12.23,9.03
	c-8.55,1.06-18.48,0.58-23.31-6.68c-4.23-3.4-0.98-6.53,3.7-4.02c0.98-5.28,28.18-5.04,29.54-4.3
	C613.12,421.7,613.9,423.16,614.41,424.65z"/>
<path class="st10" d="M580.54,416.97c1.51-0.02,3.54,0.96,4.98,0.62c3.98,4.69,2.22,6.44-3.38,7.63l-3.7,4.02
	c-2.38,1.26-5.07,1.62-7.74,1.57c0.16-3.15,0.14-6.3-0.02-9.45C573.37,418.72,576.74,417.03,580.54,416.97z"/>
<path class="st15" d="M567.19,432.89c0.15,1.85-0.47,3.88,0.02,5.68c-3.42-0.51-7.11-0.02-10.16-2.16c0.52-1.87,2.28-4.06,2.55-5.82
	C562.33,430.47,564.84,431.59,567.19,432.89z"/>
<path class="st21" d="M614.41,424.65l-32.27,0.57c1.26-2.49,2.42-5.02,3.38-7.63c8.03-3.36,17.34-1.85,27.07-1.29
	C615.59,416.46,614.8,422.48,614.41,424.65z"/>
<path class="st23" d="M402.44,222.78l-0.09-2.08C404.68,220.37,404.81,222.92,402.44,222.78z"/>
<path class="st11" d="M485.61,306.2c4.76,2.57-2.53,9.92-5.91,5.55c-3.23,3.47-6.87,5.74-10.92,6.81c0.39,2.93-0.98,3.09-2.01,0.36
	c-0.82,0.68-1.47,1.38-0.5,2.11c1.63,0.37,1.54,0.98-0.05,1.8c-3.68,0.16-7.44-1.76-10.72-1.49c1.92-8.73,12.49-12.29,20.81-14.05
	C479.46,306.63,482.62,303.7,485.61,306.2z"/>
<path class="st18" d="M498.68,303.87l4.32,0.47c1.72,1.27,2.36,2.77,1.52,4.57c-8.95,1.74-15.33,5.89-19.15,12.43l-0.36,1.46
	c-3.04-0.93-6.24-0.3-9.37-0.22c-5.8-4.5-2.15-8.63,4.05-10.83c1.16-2,6.76-1.67,5.91-5.55l3.84-0.43c2.15-0.24,4.3-0.58,5.87-2.17
	C496.44,303.66,497.56,303.75,498.68,303.87z"/>
<path class="st5" d="M479.7,311.75c-1.95,3.35-4.67,7.1-4.05,10.83c-0.9,0.02-1.97-0.07-2.82-0.03c-2.01-0.63-4.3-1.72-4.04-3.99
	C468.84,313.09,474.89,311.47,479.7,311.75z"/>
<path class="st18" d="M472.82,322.55l-6.61,0.29c0.09-0.58-0.08-1.23,0.05-1.8c-1.07-0.45-0.39-1.5,0.5-2.11
	c0.24-1.01,1.47-0.23,2.01-0.36c1.21-0.29,2.68,0.51,3.61,1.7C472.8,320.8,473.03,321.63,472.82,322.55z"/>
<path class="st16" d="M463.31,455.15c-0.21,4.79-1.23,9.72-4.16,13.59c-17.12-28.26-32.79-58.99-54.57-83.7
	c1.37-12.12-20.2-18.38-17-38.05c11.24,1.63,11.2,26.45,26.8,29.79c7.87,1.69,14.36,3.18,18.1,11.15
	c3.3,7.04,9.01,14.37,11.11,22.18c2.19,8.12,0.79,16.71,8.16,22.52C449.22,435.21,459.67,459.43,463.31,455.15z"/>
<path class="st17" d="M465.04,451.77c-0.11-1.17,0-2.64,0.7-3.87c0.47-0.81,1.45-2.57,2.88-1.51
	C467.68,448.34,466.51,450.17,465.04,451.77z"/>
<path class="st3" d="M510.64,304.43c6.3,1.36,8.7,3.64,7.22,6.84l-2.39,3.48c-5.59,0.8-11.12,2.73-16.61,5.8
	c-4.42,0.98-8.99,1.66-13.47,0.79c-4.33-15.44,20.2-12.3,17.62-17L510.64,304.43z"/>
<path class="st23" d="M517.85,311.27c3.27-4.47,15.29,1.08,15.22,5.93c0.45,5.08-1.17,5.26-3.57,0.77
	c-4.12-1.03-7.9,1.02-11.83,1.53c-3.89,0.51-7.78-0.39-11.52,1.31c-2.01,0.92-5.14-0.73-7.3-0.25
	C502.8,313.51,509.72,309.72,517.85,311.27z"/>
<path class="st10" d="M533.07,317.2c-0.65-4.19,6.2-3.11,7.38,0.07c16.11,7.66,14.45,22.44,5.52,36.02c-1.1,0.5-1.28,2.49-1.86,3.38
	c-3.14,5.97-13.34,27.14-8.65,32.84c2.96,3.6,15.73,3.99,18.04-2.61c2.31-0.34,4.28-0.17,5.54,2.05l2.26,5.21
	c-3.2,3.71-17.32,14.91-23.8,10.85c-3.75-2.35-9.7-5.98-12.42-9.77c-4.62-10.38-1.08-23.5,7.05-31.12
	c2.02-8.15,6.83-13.62,9.71-21.25c5.1-13.54-13.92-16.93-12.34-24.91C530.58,318.24,531.94,317.19,533.07,317.2z"/>
<path class="st9" d="M544.1,356.67c0.53,3.67-0.75,7.45-1.59,11.81c-3.19,16.64,15.22,14.06,16.41,18.44
	c-0.02,0.66-0.15,1.41,0.12,2.03c-8.88,0.42-4.73,13.89-26.28,2.92C527.85,378.84,534.03,363.89,544.1,356.67z"/>
<path class="st12" d="M602.94,359.32c-1.24,6.69-11.86,7.41-26.1,18.91c-2.83,2.28-5.2,3.6-8.05,1.59l-0.03-3.88
	c-4.16-4.69-0.93-6.19,3.98-7.72c5-3.53,11.31-4.53,17.27-7.32C594.66,358.72,599,354.71,602.94,359.32z"/>
<path class="st6" d="M692.18,479.53l-8.33-20.48c-2.39-2.29-2.45-4.53,0.83-4.99c16.03,5.56,24.25,4.93,31-11.52
	c-0.06-4.73,0.47-9.81,4.39-14.97c7.65,5.99,8.71,14.41,6.32,22.34l-3.05,10.12c-2.06,6.84-3.16,11.64-8.2,16.86
	c-3.48,3.61-6.33,7.01-11.01,7.32C699.29,484.53,695.64,482.71,692.18,479.53z"/>
<path class="st13" d="M695.82,425.25c5.47,0.74,5.12,3.95-0.19,5.24c-5.02,5.62-16.78,12.54-23.11,5.97
	c-3.88-5.02-6.96-10.72-7.81-17.02c-2.23-13.27,5.87-13.63,16.38-9.28C685.2,411.87,702.66,421.23,695.82,425.25z"/>
<path class="st16" d="M701.53,416.1l3.5,8.84c1.03,5.79-7.78,4.79-9.22,0.3c-0.97-4.59-6.38-4.86-10.16-7.53
	c-5.77-4.07-11.99-9.05-19.12-4.54c-1.69,1.07-1.1,5.01-1.83,6.26c-0.25-1.87-2.29-3.28-1.58-5.67c0.81-2.75-1.56-7.59,1.79-10.35
	c2.96-2.43,9.38-4.9,13.39-4.83L701.53,416.1z"/>
<path class="st17" d="M695.62,430.49c2.47-4.36,9.54-2.24,11.19,2.25c-0.44,1.43,0.49,6.18-2.37,6.4
	c-19.25,1.47-3.76,6.63-29.75,2.84c-0.86-1.61-2.01-3.74-2.18-5.52c1.52-2.78,5.49,0.1,7.99-0.87
	C685.59,433.62,690.06,429.07,695.62,430.49z"/>
<path class="st4" d="M715.68,442.53c0.07,5.87-2.45,13.17-8.33,16.98c-10.51,6.8-21.29-6.97-23.51-0.46
	c-3.61-1.43-3.78-5.7-3.81-9.21c9.52,2.42,19.49,5.74,29.08-0.44C711.75,447.69,712.31,442.78,715.68,442.53z"/>
<path class="st5" d="M705.04,424.94c2.36-0.08,3.95,1.69,3.98,3.99c0.02,1.63-1.48,2.69-2.2,3.81c-4,0.71-7.52-1.32-11.19-2.25
	c-0.05-1.69,0.55-3.56,0.19-5.24L705.04,424.94z"/>
<path class="st2" d="M678.15,332.03c2.23-5.12,11.27-3.37,11.31,2.25c1.9-0.53,3.9-0.32,4.5,1.79c1.81-3.45,3.82-3.31,4.98,0.43
	c2.03,1.41,4.73,2.53,8.11,3.37c2.14-6.15,11.4-3.17,13.04,2.66c11.16,2.63,14.73,23.64,1.79,20.09c-11.62-2.23-23.02-6.7-36-7.84
	c-6.13-0.54-8.95-6.59-14.41-7.46l-0.16-3.61c-5.26-1.63-5.27-4.07-0.02-5.74c-5.51-0.36-4.86-6.49,0.51-7.31L678.15,332.03z"/>
<path class="st0" d="M724.05,342.2c16.49-0.52,28.6,17.53,17.62,31.88c-3.33,4.35-6.84,8.09-11.67,4.23
	c0.01,6.05-7.26,4.79-7.98-0.62l-0.14-15.08c5.68-2.2,5.41-9.9,1.6-14.7c-1.6-2.01-3.15-3.38-3.38-5.39
	C720.35,337.49,721.83,337.83,724.05,342.2z"/>
<path class="st11" d="M729.65,398.88c16.94,13.17,42.1,20.8,47.89-8l4.89,0.47c4.53,4.51,1.27,14.42-1.74,19.03
	c-2.63,4.02-9.73,8.78-15.17,9.06c-6.39,0.33-14.29-2.22-20.95-4.01c-11.2-3.02-23.55-17.33-30.1-14.69
	c0.67-5.33-4.89-7.52-7.53-11.68C714.24,385.01,727.65,390.77,729.65,398.88z"/>
<path class="st18" d="M736.73,389.6c4.71,0.19,5.35,1.61,2.65,5.56c5.09,1.75,4.71,4.25-0.48,5.27c-1.19,5.37-7.81,2.49-9.25-1.55
	c-7.06-4.08-14.93-7.41-22.7-9.82c-0.41-0.64-1.51-0.8-1.97-1.44l-4.21-3.8c-7.16-3.48-12.75-10.11-16.41-17.13l2.62-2.03
	c15.45,9.27,31.66,17.05,48.65,23.34L736.73,389.6z"/>
<path class="st20" d="M671.47,347.32c2.44-3.4,7.05-2.21,13.82,3.56c11.35,1.56,22.54,3.97,33.56,7.24l3.03,4.51
	c5.84,0.75,5.62,13.84,0.14,15.08c-0.9,1.76-2.55,3.85-3.99,3.34c-9.54-3.37-17.71-8.28-25.84-14.28c-5.47-3.88-8.07-3.9-7.83-0.06
	l15.79,13.04l0.62,4.09c1.62,0.4,3.36,2.12,4.21,3.8c2-3.11,3.32-2.16,1.97,1.44c10.28,4.94,12.79,8.83,7.53,11.68
	c2.92,2.73,2.12,4.29-1.81,3.6c-0.9,1.44-2.14,1.19-3.72-0.75l10.11,7.88c3.56,4.65,1.42,7.85-2.62,4.21
	c0.02,5.53-6.29,5.32-7.55,0.03l-2.8-0.05c-18.49-14.92-27.73-22.39-27.73-22.39l-14.12,5.28l-3.12-3.43
	c3.8-6.99,13.2-9.36,15.49-17.28c0.67-5.1-4.56-8.79-5.96-7.69c-1.02-0.71-2.48-0.44-2.66-1.61c-2.77-17.41,14.16-4.28-42.3-8.12
	c-5.12-0.35-6.6-7.01-7.37-10.49c0.91-1.53,2.18-2.46,3.83-2.1c18.67,4.09,28.38,5.42,47.2-1.87L671.47,347.32z"/>
<g>
	<path class="st23" d="M708.9,415.7c0.96,6.88-4.28,6.09-7.37,0.4l-3.93,1.77l-20.37-15.41c-7.98,0.66-11.38,3.52-10.21,8.56
		l-3.91,2.74c-3.73-2.45-2.19-7.99-4.13-11.21c-0.27-2.86,0.87-5.1,2.14-7.44c7.63,0.17,16.53-10.97,21.49-2.56
		c2.76,4.69,7.23,6.42,11.29,9.63C699.47,406.58,703.19,412.43,708.9,415.7z"/>
	<path class="st23" d="M616.07,338.31c16.75,7.43,34.51,8.49,53.26,3.18l1.97,2.22c5.06,0.05,4.86,1.88,0.16,3.61
		c-29.49,8.48-23.52,10.22-53.14,2.61c-2.29-0.67-5.13-1.65-5.71-3.92c-0.66-2.59-0.65-5.36-0.13-7.72
		C613.52,334.74,615.1,334.75,616.07,338.31z"/>
	<path class="st12" d="M676.62,377.83c-1.07-3.1-3.25-5.8-5.96-7.69c-0.54-1.19,0.68-1.66,1.33-1.81c2.12-0.48,2.48,1.41,3.58,3.05
		l2.63,3.93C678.94,376.43,677.05,376.95,676.62,377.83z"/>
	<path class="st14" d="M722.02,377.69c2.48-0.38,5.62,1.33,7.98,0.62c4.53,0.41,7.88,4.41,7.28,8.96c3.6,0.98,3.26,2.35-0.55,2.32
		c-14.17-1.72-18.08-5.06-33.61-12.07c-6.9-3.11-11.59-9.96-18.75-10.84c-2.57-2.74-7.4-3.95-7.75-9.66
		C694.77,360.55,709.38,379.62,722.02,377.69z"/>
	<path class="st12" d="M683.41,382.38c-6.01-8.44,27.9,20.41,20.88,17.03C695.85,394.8,689.98,389.85,683.41,382.38z"/>
	<path class="st12" d="M712.67,404.33c3.54,3.61,8.65,6.3,9.51,11.56c-1.26,0.62-2.02,3.29-3.16,3.5c-2.21,0.41-2.9-2.31-2.58-3.72
		c11.92-0.65-4.15-5.16-9.65-12.45C710.28,401.2,711.18,403.77,712.67,404.33z"/>
	<path class="st11" d="M704.98,387.61c-1.24-0.2-2.65-0.42-3.64-1.46c-0.52-0.54-0.62-1.51-0.56-2.34c0.7,0.34,2.07-0.35,3.04,0.05
		C705.21,384.44,705.29,386.22,704.98,387.61z"/>
</g>
<path class="st9" d="M551.67,315c0.71-0.94,1.39-0.91,2.04,0.07c0.63-0.03,1.26-0.06,1.89-0.06c-3.85,6.23,1,15.35,0.04,25.22
	c-4.48,3.59-4.1,10.54-9.68,13.06c-0.62-6.39,9.74-19.91-0.49-27.55c-3.22-2.4-5.63-4.79-5.03-8.47c0.12-2.67,3.01-2.62,5.39-1.97
	C547.47,314.46,549.93,315.37,551.67,315z"/>
<path class="st23" d="M557.16,349.73c-0.01,3.09-2.6,6.99-1.37,10.97c2.2,7.11,10.84,8.83,16.94,7.52
	c-1.19,2.64-2.16,5.43-3.98,7.72c-6.89-0.28-13.56-3.89-18.93-9.31c-3.24-3.27-1.23-7.96,0.1-12.33
	C550.77,351.51,553.94,350.61,557.16,349.73z"/>
<path class="st24" d="M671.29,337.96c-0.13,1.91-0.06,3.84,0.02,5.74c-19.07,3.16-25.66,8.61-42.96,2.69
	c-5.18-1.77-12.17-1.69-12.27-8.09c-0.32-2.03-0.09-4.22,1.62-5.54l2.35-0.97c14.68,5.59,30.56,6.48,47.66,2.68L671.29,337.96z"/>
<path class="st4" d="M873.3,312.01c0.64,0.12,1.4,0.39,2,0.22c5.28,6.18-29.49,25.69-36.14,27.21c-8.71,1.99-18.79,1.76-23.7,10.81
	c-12.03,22.2,2.66,52.05,0.66,71.01c-0.75,7.07-3.36,12.59-3.47,19c-1.8-0.37-3.76-1.44-5.63-1.3c-0.08-8.03,5.37-16.03,3.87-25.12
	c-2.24-13.54-6.3-27.17-11.56-39.59c-1.73-4.08-13.84-26.06-7.61-33.63c7.97-9.68,32.64,1.95,61.99-18.1
	c3.65-2.49,8.14-4.12,8.46-8.63C865.29,311.3,869.45,311.28,873.3,312.01z"/>
<path class="st4" d="M799.25,318.84c0.77-0.06,1.56,0.43,2.33,0.44c-6.95,2.92-15.17,3.72-22.84,3.72c-3.48-0.17-3.69-3.3,0-3.78
	C783.73,313.75,793.97,313.71,799.25,318.84z"/>
<path class="st11" d="M778.73,319.22V323c-1.2,0-3.07-0.44-4.16,0.02c-0.72-1.22-1.28-2.51-1.66-3.87
	C773.11,313.73,777.47,314.04,778.73,319.22z"/>
<path class="st25" d="M876.82,360.98l-22.67,43.58l-5.01-0.25c-2.88-22.52,17.18-43.63,17.71-43.73
	C870.3,359.98,873.94,361.92,876.82,360.98z"/>
<path class="st10" d="M754.61,321.07c0.87,3.37-0.62,3.73-2.25,0.44c-11.99,7.23-1.77,24.83,6.65,31.41
	c2.69,4.51,5.48,8.97,8.38,13.36c0.74,0.43,1.06,1.67,1.82,2.01c12.64,16.57,9.23,44.51-16.25,41.81
	c-5.25-0.56-14.96-3.54-14.05-9.67l0.48-5.27c2.21-3.11,6.62-3.32,13.21-0.62c19.34-1.48,11.16-20.09,0.04-27.92
	c-4.7-0.79-7.8-5.26-9.32-13.41c-3.81-4.09-5.22-7.85-4.22-11.25c-9.8-4.73-3.91-20.33,3.65-24.91
	C746.91,316.92,753.61,316.2,754.61,321.07z"/>
<path class="st15" d="M776.82,379.59c1.94,2.41,3.72,5.11,5.36,8.09l0.27,3.67c-4.47,2.82-3.72,9.57-6.58,13.87
	c-8.69,13.08-25.25,10.63-36.99,3.21c-4.55-2.88-10.43-3.52-9.22-9.55c3.04,0.75,6.09,1.6,9.25,1.55
	c6.14,4.86,17.18,8.39,25.44,4.24c9.01-4.53,10.95-18.79,7.48-27.07c-1.63-3.9-3.32-6.06-2.61-9.3
	C773.53,370.25,774.82,375.37,776.82,379.59z"/>
<path class="st3" d="M801.56,307.74c0.26,3.85-0.71,7.62-2.31,11.1c-6.83,0.55-13.68,0.45-20.52,0.38l-5.82-0.06l-7.15,0.05
	c0,2.4-1.31,2.36-2.15,0.01c0.71-7.52,8.27-3.46,11.07-11.54c-0.97-5.48,2.57-6.45,6.23-2.24
	C783.67,297.38,803.19,298.07,801.56,307.74z"/>
<path class="st15" d="M752.36,321.51l1.39,1.9c-6.31,9.62,1.29,20.35,7.82,27.68c0.11,0.54,0.34,1.25,0.28,1.8
	c1.53,1.46,2.81,3.47,3.81,6.03c1.52,2.19,2.15,4.65,1.72,7.36c-4.01,0.43-4.19-4.1-6.53-6.75c-7.54-8.56-21.65-25.1-14.47-35.52
	C747.42,322.51,749.98,321.97,752.36,321.51z"/>
<path class="st11" d="M755.96,320.93c1.51,3.21-2.72,6.41-2.68,9.77c0.1,8.17,6.85,13.44,8.3,20.4
	c-6.41-0.13-17.97-20.57-9.22-29.58l2.25-0.44C755.04,320.99,755.52,320.89,755.96,320.93z"/>
<path class="st11" d="M782.17,387.68c-4.76,0.47-3.95-5.13-5.36-8.09C781.16,379.42,781.9,383.99,782.17,387.68z"/>
<path class="st11" d="M765.67,358.92c-2.94-0.46-4.07-3.29-3.81-6.03c1.67-1.27,2.55,0.7,3.37,1.66
	C766.23,355.73,765.01,357.97,765.67,358.92z"/>
<path class="st11" d="M765.76,319.21c1.17,1.11,0.04,2.97-1.59,3.85c-0.91,0.5-1.99-0.56-2.75-1.75l2.19-2.09L765.76,319.21z"/>
<path class="st12" d="M724.11,419.51c-2.24,0.56-2.9-2.19-0.37-1.86L724.11,419.51z"/>
<path class="st16" d="M809.04,302.37c-1.24,0.16-2.38,0.82-3.47,1.37c-1.41-0.74-2.75-1.59-3.81-2.79
	c-2.48-2.81-12.1-13.17-16.58-7.93c0.3,6.84-1.12,10.98-4.27,12.41c-2.16,0.37-4.17,1.56-6.23,2.24c-0.6-1.01-2.13-2.03-3.38-1.86
	l-0.01-11.39c0-4.17,1.58-10.63,6.57-12.15C791.62,278.09,808.92,288.34,809.04,302.37z"/>
<path class="st8" d="M697.26,315.75c1.73,0.75,3.12,0.62,4.15-0.36c5.61-0.49,11.29-1.18,16.94-1.26
	c5.58-0.08,11.44-0.14,16.91,1.03c2.57,0.55,4.65,1.97,7.47,1.89c0.54,15.06-7.32-1.62-3.65,24.91c-0.63,4.1-3.9,4.43-9.81,1
	l-5.23-0.76c-1.05,0.14-2.87,0.44-3.96,0.33c-4.44-0.45-8.49-2.85-13.04-2.66c-3.34-0.61-6.04-1.73-8.11-3.37
	c-1.65-0.21-3.35-0.13-4.98-0.43c-1.57-1.45-2.36-1.62-4.5-1.79c-3.39-0.65-7.84-1.5-11.31-2.25c-1.51-4.5-5.85-6.83-3.5-11.21
	c0.53-0.98,2.47-1.1,3.58-1.61c1.52-2.05,3.02-2.73,4.51-2.03c2.54-0.14,4.85-1.54,7.29-1.51L697.26,315.75z"/>
<path class="st8" d="M805.57,303.74c-0.56,1.97-1.89,3.76-4.01,4c-5.17-5.65-13.6-3.52-20.65-2.3c0.84-3.87-1.79-9.89,0.84-14.04
	c3.14-4.96,11.23-2.32,16.06-0.14C802.58,293.4,806.19,297.62,805.57,303.74z"/>
<path class="st18" d="M544.01,313.89l1.83,1.42c-1.74,0.91-3.26,1.99-5.39,1.97l-7.38-0.07c-4.56-2.61-9.9-4.92-15.22-5.93
	l-7.22-6.84C527.61,304.63,526.49,311.84,544.01,313.89z"/>
<path class="st18" d="M553.71,315.07c-0.67,0.04-1.39-0.21-2.04-0.07C551.4,312.96,553.9,313.22,553.71,315.07z"/>
<path class="st5" d="M629.35,302.2c8.29-0.23,16.49,0.24,24.58,1.4c5.16-0.21,10.28-0.8,15.37,0.95l-0.4,7.09
	c-3.63,4.08-7.26,1.43-10.23-2.18c-4.62,2.89-27.27,3.03-30.71,0.67c-1.39-0.95-1.98-2.66-2.47-4.19c-5.05,0.06-4.9-1.73-0.23-3.52
	C626.46,302.76,628.27,301.63,629.35,302.2z"/>
<path class="st15" d="M625.27,302.42l0.23,3.52c0.77,6.43-7.13,11.01-11.44,5.74l-5.57-11.45
	C615.41,308.9,618.18,300.42,625.27,302.42z"/>
<path class="st4" d="M668.9,311.64c0.48,0.71,1.01,1.39,1.58,2.04c5.21,1.67,4.3,4.34,1.82,8.22c0.84,3.48,0.48,5.75-1.06,6.8
	l-2.82,3.61c-12.76,2.8-34.45,3.04-47.06,0.05l-3.25-3.48c-2.12-1.12-4.01-2.58-5.88-4.07c-0.13-4.45,1.05-8.76,1.81-13.13
	c4.39-0.47,7.68-3.64,11.44-5.74c11.06,1.61,22.11,3.61,33.79,0.02C663.07,308.34,665.51,310.83,668.9,311.64z"/>
<path class="st17" d="M671.24,328.69l0.55,1.96l-0.51,7.31c-12.11,0.76-46.04,7.26-53.6-5.2l0.42-3.89
	c5.54-0.76,11.19-0.27,17.29,1.24C648.09,333.25,658.37,327.44,671.24,328.69z"/>
<path class="st7" d="M665.18,324.43c-8.11-0.27-14.91,1.38-22.66,2.19c-0.77,0.08-23.53-5.03-22.27-4.31
	c-1.57-0.91-3.69-4.31-2.69-5.87c4.18-6.56,10.97-5.82,17.91-5.5l24.1,1.13C663.89,312.27,665.44,318.36,665.18,324.43z"/>
<path class="st15" d="M701.42,315.39c0.74,1.2-0.41,1-1.22,1.42c-1.35,0.71-2.17-1.18-2.93-1.06L701.42,315.39z"/>
<path class="st10" d="M682.58,315.15l0.15,2.02c-1.4,0.08-2.76,2.48-4.51,2.03C678.72,317.04,680.2,315.32,682.58,315.15z"/>
<path class="st5" d="M466.27,321.04c-2.23-0.29-1.08-2.01,0.5-2.11L466.27,321.04z"/>
<path class="st0" d="M707.05,339.87c-1.48,0.06-2.89,0.36-4.84,0.22c-1.43-0.1-4.55-0.99-3.26-3.59
	C701.76,336.87,705.94,336.79,707.05,339.87z"/>
<path class="st3" d="M693.96,336.07c-1.44-0.26-4.37,0.21-4.5-1.79c0.93-0.32,2.15-2.34,3.12-1.77
	C694.08,333.4,694.96,334.92,693.96,336.07z"/>
<path class="st3" d="M739.09,341.96c7.35,6.21,9.45,16.13,13.54,24.67c10.88,4.64,5.06,13.45-2.19,19.1
	c-3.76,2.94-10.92,7.29-13.16,1.55c-3.82-1.52-6.66-4.88-7.28-8.96c5.93-1.95,10.84-7.89,11.96-13.73
	c1.14-5.98-2.17-13.29-7.46-16.34l-10.44-6.03C728.27,338.49,734.14,343.13,739.09,341.96z"/>
<path class="st9" d="M739.38,395.16c-1.17-1.38-3.18-3.91-2.65-5.56c0.24-0.75,0.52-1.52,0.55-2.32c6.85-1.06,13.97-5.3,17.46-12.36
	c1.27-2.57-1.16-6.31-2.11-8.29c4.47-0.8,7.75,2.39,10.57,5.69c5.87,6.88,6.26,12.16,2.99,18.59
	C760.03,403.02,748.81,397.47,739.38,395.16z"/>
<path class="st14" d="M766.11,502.26l-3.84,2.95c-8.12-1.83-15.36,1.3-21.72,9.41c-9.77,8.47-20.26,13.63-31.47,15.46l0.17,21.76
	l-3.88,3.83c4.98,0.82,4.7,2.51-0.17,3.7l1.54,2.04l4.05,5.8c0.18,35.88,0.27,53.82,0.27,53.82l-3.89,2.38
	c3.64,1.42,4.43,4.95,2.36,10.59c15.66,2.96,26.08-20.24,18.35-33.4c-1.79-32.29,28.98-22.52,36.49,0.07
	c7.65,9.83,18.28,22.68,16.99-0.03l-0.88-24.95l3.93-3.09c0.54-1.65,1.18-1.63,1.92-0.01c2.39,20.36,3.06,41.09,0,62.4
	c-0.21,1.49-3.4,0.44-3.81,0.16l-5.96-0.29c-18.09-17.33-27.13-26-27.13-26c-1.8,3.71-3.32,6.39-7.93,5.42
	c3.33,5.81-8.57,16.89-13.77,18.82c-6.35,4.13-18.92,23.06-26.61,24.58c-1.46-0.25-3.65-0.83-3.69-1.87
	c-0.45-11.77,1.11-46.11,4.14-56.33l3.42-2.31c-1.31-2.58-1.21-4.95,0-7.56c-5.19-1.88-7.65-16.74-1.85-18.8
	c-1.53-0.14-1.91-0.81-1.98-2.09c-1.28-25.94-3.48-51.97-11.02-77.38l2.91-5.8c2.6-2.48,4.04-1.23,3.1,2.38
	c3.53,5.32,12.27,3.79,19.81-1.43c5.46-4.68,11.25-8.04,17.35-10.11l6.01-4.02c0.21-1.61,0.8-1.65,1.76-0.25
	c-0.66-2.48,7.57-5.11,8.82-5.16C753.75,466.81,768.34,497.09,766.11,502.26z"/>
<g>
	<g>
		<path class="st8" d="M780.53,566.82c3.18,0.17,4.08,3.02,3.87,5.78c-0.98,13.16,2.74,27.72-0.89,41.46
			c-2.13,8.07-18.66-0.38-25.99-18.59c-3.08-7.64-15.14-16.03-22.26-9.74c-8.39,7.41-2.59,20.34-0.25,28.34
			c-0.47,7.51-15.93,31.83-27.42,22.93c-0.96,4.19,0.82,7.39-1.71,11.45c-2.51-8.76,0.93-17.03,1.29-25.04
			c4.73-0.49,12.4,2.03,16.54-2.06c7.65-7.55-9.5-38.15,10.52-46.03c15.4-6.07,28.19,19.08,36.24,16.43
			C779.77,588.69,773.02,568.22,780.53,566.82z"/>
		<path class="st5" d="M744.96,449.69l0.11,1.89c1.05,3.89,2.93,7.04,5.64,9.46c0.16,0.55-0.04,1.2,0.06,1.77
			c-0.39,1.42-0.92,3.15-2.16,3.78c-1.58,0.8-3.38,0.3-5.82,0.45c-2.93,0.18-1.88,3.47-1.72,5.08c-0.48,0.2-1.24,0.27-1.76,0.25
			c-1.47,1.76-3.47,3.1-6.01,4.02c-0.96,5.56-6.36,6.67-10.96,9.47c-7.8,4.76-14.86,10.11-24.69,6.7c-1.82-0.63-1.63-3.23-1.5-4.64
			c13.79,6.67,34.25-16.85,38.25-28.17c1.29-3.66,7.12-5.55,6.78-9.74C740.77,446.17,743.35,446.33,744.96,449.69z"/>
		<path class="st18" d="M739.32,472.36c1.3,1.5-0.55,2.99-1.62,3.57c-1.44,0.78-3.01,0.64-4.39,0.45
			C733.8,473.49,736.63,472.27,739.32,472.36z"/>
		<path class="st8" d="M706.74,561.4c-1.28,0.76-1.58-1.17-1.54-2.04C705.96,559.71,706.71,560.52,706.74,561.4z"/>
		<path class="st8" d="M783.35,629.29c-1.5-1.99-1.14-4.31-0.35-7.68C785.19,622.68,785.04,624.82,783.35,629.29z"/>
	</g>
</g>
</svg>
